<?xml version="1.0" encoding="utf-8" standalone="no"?>
<!DOCTYPE svg PUBLIC "-//W3C//DTD SVG 1.1//EN"
  "http://www.w3.org/Graphics/SVG/1.1/DTD/svg11.dtd">
<svg xmlns:xlink="http://www.w3.org/1999/xlink" width="592.48125pt" height="312.967812pt" viewBox="0 0 592.48125 312.967812" xmlns="http://www.w3.org/2000/svg" version="1.1">
 <metadata>
  <rdf:RDF xmlns:dc="http://purl.org/dc/elements/1.1/" xmlns:cc="http://creativecommons.org/ns#" xmlns:rdf="http://www.w3.org/1999/02/22-rdf-syntax-ns#">
   <cc:Work>
    <dc:type rdf:resource="http://purl.org/dc/dcmitype/StillImage"/>
    <dc:date>2025-06-02T22:48:30.853890</dc:date>
    <dc:format>image/svg+xml</dc:format>
    <dc:creator>
     <cc:Agent>
      <dc:title>Matplotlib v3.10.0, https://matplotlib.org/</dc:title>
     </cc:Agent>
    </dc:creator>
   </cc:Work>
  </rdf:RDF>
 </metadata>
 <defs>
  <style type="text/css">*{stroke-linejoin: round; stroke-linecap: butt}</style>
 </defs>
 <g id="figure_1">
  <g id="patch_1">
   <path d="M 0 312.967812 
L 592.48125 312.967812 
L 592.48125 0 
L 0 0 
z
" style="fill: #ffffff"/>
  </g>
  <g id="axes_1">
   <g id="patch_2">
    <path d="M 20.5625 273.317812 
L 466.9625 273.317812 
L 466.9625 23.837812 
L 20.5625 23.837812 
z
" style="fill: #ffffff"/>
   </g>
   <g id="matplotlib.axis_1">
    <g id="xtick_1">
     <g id="line2d_1">
      <path d="M 29.4905 273.317812 
L 29.4905 23.837812 
" clip-path="url(#p6d4b450000)" style="fill: none; stroke: #d3d3d3; stroke-width: 0.8; stroke-linecap: square"/>
     </g>
     <g id="line2d_2">
      <defs>
       <path id="m5f3cba980d" d="M 0 0 
L 0 3.5 
" style="stroke: #000000; stroke-width: 0.8"/>
      </defs>
      <g>
       <use xlink:href="#m5f3cba980d" x="29.4905" y="273.317812" style="stroke: #000000; stroke-width: 0.8"/>
      </g>
     </g>
     <g id="text_1">
      <!-- 2000 -->
      <g transform="translate(32.249875 305.767812) rotate(-90) scale(0.1 -0.1)">
       <defs>
        <path id="DejaVuSans-32" d="M 1228 531 
L 3431 531 
L 3431 0 
L 469 0 
L 469 531 
Q 828 903 1448 1529 
Q 2069 2156 2228 2338 
Q 2531 2678 2651 2914 
Q 2772 3150 2772 3378 
Q 2772 3750 2511 3984 
Q 2250 4219 1831 4219 
Q 1534 4219 1204 4116 
Q 875 4013 500 3803 
L 500 4441 
Q 881 4594 1212 4672 
Q 1544 4750 1819 4750 
Q 2544 4750 2975 4387 
Q 3406 4025 3406 3419 
Q 3406 3131 3298 2873 
Q 3191 2616 2906 2266 
Q 2828 2175 2409 1742 
Q 1991 1309 1228 531 
z
" transform="scale(0.015625)"/>
        <path id="DejaVuSans-30" d="M 2034 4250 
Q 1547 4250 1301 3770 
Q 1056 3291 1056 2328 
Q 1056 1369 1301 889 
Q 1547 409 2034 409 
Q 2525 409 2770 889 
Q 3016 1369 3016 2328 
Q 3016 3291 2770 3770 
Q 2525 4250 2034 4250 
z
M 2034 4750 
Q 2819 4750 3233 4129 
Q 3647 3509 3647 2328 
Q 3647 1150 3233 529 
Q 2819 -91 2034 -91 
Q 1250 -91 836 529 
Q 422 1150 422 2328 
Q 422 3509 836 4129 
Q 1250 4750 2034 4750 
z
" transform="scale(0.015625)"/>
       </defs>
       <use xlink:href="#DejaVuSans-32"/>
       <use xlink:href="#DejaVuSans-30" transform="translate(63.623047 0)"/>
       <use xlink:href="#DejaVuSans-30" transform="translate(127.246094 0)"/>
       <use xlink:href="#DejaVuSans-30" transform="translate(190.869141 0)"/>
      </g>
     </g>
    </g>
    <g id="xtick_2">
     <g id="line2d_3">
      <path d="M 47.3465 273.317812 
L 47.3465 23.837812 
" clip-path="url(#p6d4b450000)" style="fill: none; stroke: #d3d3d3; stroke-width: 0.8; stroke-linecap: square"/>
     </g>
     <g id="line2d_4">
      <g>
       <use xlink:href="#m5f3cba980d" x="47.3465" y="273.317812" style="stroke: #000000; stroke-width: 0.8"/>
      </g>
     </g>
     <g id="text_2">
      <!-- 2001 -->
      <g transform="translate(50.105875 305.767812) rotate(-90) scale(0.1 -0.1)">
       <defs>
        <path id="DejaVuSans-31" d="M 794 531 
L 1825 531 
L 1825 4091 
L 703 3866 
L 703 4441 
L 1819 4666 
L 2450 4666 
L 2450 531 
L 3481 531 
L 3481 0 
L 794 0 
L 794 531 
z
" transform="scale(0.015625)"/>
       </defs>
       <use xlink:href="#DejaVuSans-32"/>
       <use xlink:href="#DejaVuSans-30" transform="translate(63.623047 0)"/>
       <use xlink:href="#DejaVuSans-30" transform="translate(127.246094 0)"/>
       <use xlink:href="#DejaVuSans-31" transform="translate(190.869141 0)"/>
      </g>
     </g>
    </g>
    <g id="xtick_3">
     <g id="line2d_5">
      <path d="M 65.2025 273.317812 
L 65.2025 23.837812 
" clip-path="url(#p6d4b450000)" style="fill: none; stroke: #d3d3d3; stroke-width: 0.8; stroke-linecap: square"/>
     </g>
     <g id="line2d_6">
      <g>
       <use xlink:href="#m5f3cba980d" x="65.2025" y="273.317812" style="stroke: #000000; stroke-width: 0.8"/>
      </g>
     </g>
     <g id="text_3">
      <!-- 2002 -->
      <g transform="translate(67.961875 305.767812) rotate(-90) scale(0.1 -0.1)">
       <use xlink:href="#DejaVuSans-32"/>
       <use xlink:href="#DejaVuSans-30" transform="translate(63.623047 0)"/>
       <use xlink:href="#DejaVuSans-30" transform="translate(127.246094 0)"/>
       <use xlink:href="#DejaVuSans-32" transform="translate(190.869141 0)"/>
      </g>
     </g>
    </g>
    <g id="xtick_4">
     <g id="line2d_7">
      <path d="M 83.0585 273.317812 
L 83.0585 23.837812 
" clip-path="url(#p6d4b450000)" style="fill: none; stroke: #d3d3d3; stroke-width: 0.8; stroke-linecap: square"/>
     </g>
     <g id="line2d_8">
      <g>
       <use xlink:href="#m5f3cba980d" x="83.0585" y="273.317812" style="stroke: #000000; stroke-width: 0.8"/>
      </g>
     </g>
     <g id="text_4">
      <!-- 2003 -->
      <g transform="translate(85.817875 305.767812) rotate(-90) scale(0.1 -0.1)">
       <defs>
        <path id="DejaVuSans-33" d="M 2597 2516 
Q 3050 2419 3304 2112 
Q 3559 1806 3559 1356 
Q 3559 666 3084 287 
Q 2609 -91 1734 -91 
Q 1441 -91 1130 -33 
Q 819 25 488 141 
L 488 750 
Q 750 597 1062 519 
Q 1375 441 1716 441 
Q 2309 441 2620 675 
Q 2931 909 2931 1356 
Q 2931 1769 2642 2001 
Q 2353 2234 1838 2234 
L 1294 2234 
L 1294 2753 
L 1863 2753 
Q 2328 2753 2575 2939 
Q 2822 3125 2822 3475 
Q 2822 3834 2567 4026 
Q 2313 4219 1838 4219 
Q 1578 4219 1281 4162 
Q 984 4106 628 3988 
L 628 4550 
Q 988 4650 1302 4700 
Q 1616 4750 1894 4750 
Q 2613 4750 3031 4423 
Q 3450 4097 3450 3541 
Q 3450 3153 3228 2886 
Q 3006 2619 2597 2516 
z
" transform="scale(0.015625)"/>
       </defs>
       <use xlink:href="#DejaVuSans-32"/>
       <use xlink:href="#DejaVuSans-30" transform="translate(63.623047 0)"/>
       <use xlink:href="#DejaVuSans-30" transform="translate(127.246094 0)"/>
       <use xlink:href="#DejaVuSans-33" transform="translate(190.869141 0)"/>
      </g>
     </g>
    </g>
    <g id="xtick_5">
     <g id="line2d_9">
      <path d="M 100.9145 273.317812 
L 100.9145 23.837812 
" clip-path="url(#p6d4b450000)" style="fill: none; stroke: #d3d3d3; stroke-width: 0.8; stroke-linecap: square"/>
     </g>
     <g id="line2d_10">
      <g>
       <use xlink:href="#m5f3cba980d" x="100.9145" y="273.317812" style="stroke: #000000; stroke-width: 0.8"/>
      </g>
     </g>
     <g id="text_5">
      <!-- 2004 -->
      <g transform="translate(103.673875 305.767812) rotate(-90) scale(0.1 -0.1)">
       <defs>
        <path id="DejaVuSans-34" d="M 2419 4116 
L 825 1625 
L 2419 1625 
L 2419 4116 
z
M 2253 4666 
L 3047 4666 
L 3047 1625 
L 3713 1625 
L 3713 1100 
L 3047 1100 
L 3047 0 
L 2419 0 
L 2419 1100 
L 313 1100 
L 313 1709 
L 2253 4666 
z
" transform="scale(0.015625)"/>
       </defs>
       <use xlink:href="#DejaVuSans-32"/>
       <use xlink:href="#DejaVuSans-30" transform="translate(63.623047 0)"/>
       <use xlink:href="#DejaVuSans-30" transform="translate(127.246094 0)"/>
       <use xlink:href="#DejaVuSans-34" transform="translate(190.869141 0)"/>
      </g>
     </g>
    </g>
    <g id="xtick_6">
     <g id="line2d_11">
      <path d="M 118.7705 273.317812 
L 118.7705 23.837812 
" clip-path="url(#p6d4b450000)" style="fill: none; stroke: #d3d3d3; stroke-width: 0.8; stroke-linecap: square"/>
     </g>
     <g id="line2d_12">
      <g>
       <use xlink:href="#m5f3cba980d" x="118.7705" y="273.317812" style="stroke: #000000; stroke-width: 0.8"/>
      </g>
     </g>
     <g id="text_6">
      <!-- 2005 -->
      <g transform="translate(121.529875 305.767812) rotate(-90) scale(0.1 -0.1)">
       <defs>
        <path id="DejaVuSans-35" d="M 691 4666 
L 3169 4666 
L 3169 4134 
L 1269 4134 
L 1269 2991 
Q 1406 3038 1543 3061 
Q 1681 3084 1819 3084 
Q 2600 3084 3056 2656 
Q 3513 2228 3513 1497 
Q 3513 744 3044 326 
Q 2575 -91 1722 -91 
Q 1428 -91 1123 -41 
Q 819 9 494 109 
L 494 744 
Q 775 591 1075 516 
Q 1375 441 1709 441 
Q 2250 441 2565 725 
Q 2881 1009 2881 1497 
Q 2881 1984 2565 2268 
Q 2250 2553 1709 2553 
Q 1456 2553 1204 2497 
Q 953 2441 691 2322 
L 691 4666 
z
" transform="scale(0.015625)"/>
       </defs>
       <use xlink:href="#DejaVuSans-32"/>
       <use xlink:href="#DejaVuSans-30" transform="translate(63.623047 0)"/>
       <use xlink:href="#DejaVuSans-30" transform="translate(127.246094 0)"/>
       <use xlink:href="#DejaVuSans-35" transform="translate(190.869141 0)"/>
      </g>
     </g>
    </g>
    <g id="xtick_7">
     <g id="line2d_13">
      <path d="M 136.6265 273.317812 
L 136.6265 23.837812 
" clip-path="url(#p6d4b450000)" style="fill: none; stroke: #d3d3d3; stroke-width: 0.8; stroke-linecap: square"/>
     </g>
     <g id="line2d_14">
      <g>
       <use xlink:href="#m5f3cba980d" x="136.6265" y="273.317812" style="stroke: #000000; stroke-width: 0.8"/>
      </g>
     </g>
     <g id="text_7">
      <!-- 2006 -->
      <g transform="translate(139.385875 305.767812) rotate(-90) scale(0.1 -0.1)">
       <defs>
        <path id="DejaVuSans-36" d="M 2113 2584 
Q 1688 2584 1439 2293 
Q 1191 2003 1191 1497 
Q 1191 994 1439 701 
Q 1688 409 2113 409 
Q 2538 409 2786 701 
Q 3034 994 3034 1497 
Q 3034 2003 2786 2293 
Q 2538 2584 2113 2584 
z
M 3366 4563 
L 3366 3988 
Q 3128 4100 2886 4159 
Q 2644 4219 2406 4219 
Q 1781 4219 1451 3797 
Q 1122 3375 1075 2522 
Q 1259 2794 1537 2939 
Q 1816 3084 2150 3084 
Q 2853 3084 3261 2657 
Q 3669 2231 3669 1497 
Q 3669 778 3244 343 
Q 2819 -91 2113 -91 
Q 1303 -91 875 529 
Q 447 1150 447 2328 
Q 447 3434 972 4092 
Q 1497 4750 2381 4750 
Q 2619 4750 2861 4703 
Q 3103 4656 3366 4563 
z
" transform="scale(0.015625)"/>
       </defs>
       <use xlink:href="#DejaVuSans-32"/>
       <use xlink:href="#DejaVuSans-30" transform="translate(63.623047 0)"/>
       <use xlink:href="#DejaVuSans-30" transform="translate(127.246094 0)"/>
       <use xlink:href="#DejaVuSans-36" transform="translate(190.869141 0)"/>
      </g>
     </g>
    </g>
    <g id="xtick_8">
     <g id="line2d_15">
      <path d="M 154.4825 273.317812 
L 154.4825 23.837812 
" clip-path="url(#p6d4b450000)" style="fill: none; stroke: #d3d3d3; stroke-width: 0.8; stroke-linecap: square"/>
     </g>
     <g id="line2d_16">
      <g>
       <use xlink:href="#m5f3cba980d" x="154.4825" y="273.317812" style="stroke: #000000; stroke-width: 0.8"/>
      </g>
     </g>
     <g id="text_8">
      <!-- 2007 -->
      <g transform="translate(157.241875 305.767812) rotate(-90) scale(0.1 -0.1)">
       <defs>
        <path id="DejaVuSans-37" d="M 525 4666 
L 3525 4666 
L 3525 4397 
L 1831 0 
L 1172 0 
L 2766 4134 
L 525 4134 
L 525 4666 
z
" transform="scale(0.015625)"/>
       </defs>
       <use xlink:href="#DejaVuSans-32"/>
       <use xlink:href="#DejaVuSans-30" transform="translate(63.623047 0)"/>
       <use xlink:href="#DejaVuSans-30" transform="translate(127.246094 0)"/>
       <use xlink:href="#DejaVuSans-37" transform="translate(190.869141 0)"/>
      </g>
     </g>
    </g>
    <g id="xtick_9">
     <g id="line2d_17">
      <path d="M 172.3385 273.317812 
L 172.3385 23.837812 
" clip-path="url(#p6d4b450000)" style="fill: none; stroke: #d3d3d3; stroke-width: 0.8; stroke-linecap: square"/>
     </g>
     <g id="line2d_18">
      <g>
       <use xlink:href="#m5f3cba980d" x="172.3385" y="273.317812" style="stroke: #000000; stroke-width: 0.8"/>
      </g>
     </g>
     <g id="text_9">
      <!-- 2008 -->
      <g transform="translate(175.097875 305.767812) rotate(-90) scale(0.1 -0.1)">
       <defs>
        <path id="DejaVuSans-38" d="M 2034 2216 
Q 1584 2216 1326 1975 
Q 1069 1734 1069 1313 
Q 1069 891 1326 650 
Q 1584 409 2034 409 
Q 2484 409 2743 651 
Q 3003 894 3003 1313 
Q 3003 1734 2745 1975 
Q 2488 2216 2034 2216 
z
M 1403 2484 
Q 997 2584 770 2862 
Q 544 3141 544 3541 
Q 544 4100 942 4425 
Q 1341 4750 2034 4750 
Q 2731 4750 3128 4425 
Q 3525 4100 3525 3541 
Q 3525 3141 3298 2862 
Q 3072 2584 2669 2484 
Q 3125 2378 3379 2068 
Q 3634 1759 3634 1313 
Q 3634 634 3220 271 
Q 2806 -91 2034 -91 
Q 1263 -91 848 271 
Q 434 634 434 1313 
Q 434 1759 690 2068 
Q 947 2378 1403 2484 
z
M 1172 3481 
Q 1172 3119 1398 2916 
Q 1625 2713 2034 2713 
Q 2441 2713 2670 2916 
Q 2900 3119 2900 3481 
Q 2900 3844 2670 4047 
Q 2441 4250 2034 4250 
Q 1625 4250 1398 4047 
Q 1172 3844 1172 3481 
z
" transform="scale(0.015625)"/>
       </defs>
       <use xlink:href="#DejaVuSans-32"/>
       <use xlink:href="#DejaVuSans-30" transform="translate(63.623047 0)"/>
       <use xlink:href="#DejaVuSans-30" transform="translate(127.246094 0)"/>
       <use xlink:href="#DejaVuSans-38" transform="translate(190.869141 0)"/>
      </g>
     </g>
    </g>
    <g id="xtick_10">
     <g id="line2d_19">
      <path d="M 190.1945 273.317812 
L 190.1945 23.837812 
" clip-path="url(#p6d4b450000)" style="fill: none; stroke: #d3d3d3; stroke-width: 0.8; stroke-linecap: square"/>
     </g>
     <g id="line2d_20">
      <g>
       <use xlink:href="#m5f3cba980d" x="190.1945" y="273.317812" style="stroke: #000000; stroke-width: 0.8"/>
      </g>
     </g>
     <g id="text_10">
      <!-- 2009 -->
      <g transform="translate(192.953875 305.767812) rotate(-90) scale(0.1 -0.1)">
       <defs>
        <path id="DejaVuSans-39" d="M 703 97 
L 703 672 
Q 941 559 1184 500 
Q 1428 441 1663 441 
Q 2288 441 2617 861 
Q 2947 1281 2994 2138 
Q 2813 1869 2534 1725 
Q 2256 1581 1919 1581 
Q 1219 1581 811 2004 
Q 403 2428 403 3163 
Q 403 3881 828 4315 
Q 1253 4750 1959 4750 
Q 2769 4750 3195 4129 
Q 3622 3509 3622 2328 
Q 3622 1225 3098 567 
Q 2575 -91 1691 -91 
Q 1453 -91 1209 -44 
Q 966 3 703 97 
z
M 1959 2075 
Q 2384 2075 2632 2365 
Q 2881 2656 2881 3163 
Q 2881 3666 2632 3958 
Q 2384 4250 1959 4250 
Q 1534 4250 1286 3958 
Q 1038 3666 1038 3163 
Q 1038 2656 1286 2365 
Q 1534 2075 1959 2075 
z
" transform="scale(0.015625)"/>
       </defs>
       <use xlink:href="#DejaVuSans-32"/>
       <use xlink:href="#DejaVuSans-30" transform="translate(63.623047 0)"/>
       <use xlink:href="#DejaVuSans-30" transform="translate(127.246094 0)"/>
       <use xlink:href="#DejaVuSans-39" transform="translate(190.869141 0)"/>
      </g>
     </g>
    </g>
    <g id="xtick_11">
     <g id="line2d_21">
      <path d="M 208.0505 273.317812 
L 208.0505 23.837812 
" clip-path="url(#p6d4b450000)" style="fill: none; stroke: #d3d3d3; stroke-width: 0.8; stroke-linecap: square"/>
     </g>
     <g id="line2d_22">
      <g>
       <use xlink:href="#m5f3cba980d" x="208.0505" y="273.317812" style="stroke: #000000; stroke-width: 0.8"/>
      </g>
     </g>
     <g id="text_11">
      <!-- 2010 -->
      <g transform="translate(210.809875 305.767812) rotate(-90) scale(0.1 -0.1)">
       <use xlink:href="#DejaVuSans-32"/>
       <use xlink:href="#DejaVuSans-30" transform="translate(63.623047 0)"/>
       <use xlink:href="#DejaVuSans-31" transform="translate(127.246094 0)"/>
       <use xlink:href="#DejaVuSans-30" transform="translate(190.869141 0)"/>
      </g>
     </g>
    </g>
    <g id="xtick_12">
     <g id="line2d_23">
      <path d="M 225.9065 273.317812 
L 225.9065 23.837812 
" clip-path="url(#p6d4b450000)" style="fill: none; stroke: #d3d3d3; stroke-width: 0.8; stroke-linecap: square"/>
     </g>
     <g id="line2d_24">
      <g>
       <use xlink:href="#m5f3cba980d" x="225.9065" y="273.317812" style="stroke: #000000; stroke-width: 0.8"/>
      </g>
     </g>
     <g id="text_12">
      <!-- 2011 -->
      <g transform="translate(228.665875 305.767812) rotate(-90) scale(0.1 -0.1)">
       <use xlink:href="#DejaVuSans-32"/>
       <use xlink:href="#DejaVuSans-30" transform="translate(63.623047 0)"/>
       <use xlink:href="#DejaVuSans-31" transform="translate(127.246094 0)"/>
       <use xlink:href="#DejaVuSans-31" transform="translate(190.869141 0)"/>
      </g>
     </g>
    </g>
    <g id="xtick_13">
     <g id="line2d_25">
      <path d="M 243.7625 273.317812 
L 243.7625 23.837812 
" clip-path="url(#p6d4b450000)" style="fill: none; stroke: #d3d3d3; stroke-width: 0.8; stroke-linecap: square"/>
     </g>
     <g id="line2d_26">
      <g>
       <use xlink:href="#m5f3cba980d" x="243.7625" y="273.317812" style="stroke: #000000; stroke-width: 0.8"/>
      </g>
     </g>
     <g id="text_13">
      <!-- 2012 -->
      <g transform="translate(246.521875 305.767812) rotate(-90) scale(0.1 -0.1)">
       <use xlink:href="#DejaVuSans-32"/>
       <use xlink:href="#DejaVuSans-30" transform="translate(63.623047 0)"/>
       <use xlink:href="#DejaVuSans-31" transform="translate(127.246094 0)"/>
       <use xlink:href="#DejaVuSans-32" transform="translate(190.869141 0)"/>
      </g>
     </g>
    </g>
    <g id="xtick_14">
     <g id="line2d_27">
      <path d="M 261.6185 273.317812 
L 261.6185 23.837812 
" clip-path="url(#p6d4b450000)" style="fill: none; stroke: #d3d3d3; stroke-width: 0.8; stroke-linecap: square"/>
     </g>
     <g id="line2d_28">
      <g>
       <use xlink:href="#m5f3cba980d" x="261.6185" y="273.317812" style="stroke: #000000; stroke-width: 0.8"/>
      </g>
     </g>
     <g id="text_14">
      <!-- 2013 -->
      <g transform="translate(264.377875 305.767812) rotate(-90) scale(0.1 -0.1)">
       <use xlink:href="#DejaVuSans-32"/>
       <use xlink:href="#DejaVuSans-30" transform="translate(63.623047 0)"/>
       <use xlink:href="#DejaVuSans-31" transform="translate(127.246094 0)"/>
       <use xlink:href="#DejaVuSans-33" transform="translate(190.869141 0)"/>
      </g>
     </g>
    </g>
    <g id="xtick_15">
     <g id="line2d_29">
      <path d="M 279.4745 273.317812 
L 279.4745 23.837812 
" clip-path="url(#p6d4b450000)" style="fill: none; stroke: #d3d3d3; stroke-width: 0.8; stroke-linecap: square"/>
     </g>
     <g id="line2d_30">
      <g>
       <use xlink:href="#m5f3cba980d" x="279.4745" y="273.317812" style="stroke: #000000; stroke-width: 0.8"/>
      </g>
     </g>
     <g id="text_15">
      <!-- 2014 -->
      <g transform="translate(282.233875 305.767812) rotate(-90) scale(0.1 -0.1)">
       <use xlink:href="#DejaVuSans-32"/>
       <use xlink:href="#DejaVuSans-30" transform="translate(63.623047 0)"/>
       <use xlink:href="#DejaVuSans-31" transform="translate(127.246094 0)"/>
       <use xlink:href="#DejaVuSans-34" transform="translate(190.869141 0)"/>
      </g>
     </g>
    </g>
    <g id="xtick_16">
     <g id="line2d_31">
      <path d="M 297.3305 273.317812 
L 297.3305 23.837812 
" clip-path="url(#p6d4b450000)" style="fill: none; stroke: #d3d3d3; stroke-width: 0.8; stroke-linecap: square"/>
     </g>
     <g id="line2d_32">
      <g>
       <use xlink:href="#m5f3cba980d" x="297.3305" y="273.317812" style="stroke: #000000; stroke-width: 0.8"/>
      </g>
     </g>
     <g id="text_16">
      <!-- 2015 -->
      <g transform="translate(300.089875 305.767812) rotate(-90) scale(0.1 -0.1)">
       <use xlink:href="#DejaVuSans-32"/>
       <use xlink:href="#DejaVuSans-30" transform="translate(63.623047 0)"/>
       <use xlink:href="#DejaVuSans-31" transform="translate(127.246094 0)"/>
       <use xlink:href="#DejaVuSans-35" transform="translate(190.869141 0)"/>
      </g>
     </g>
    </g>
    <g id="xtick_17">
     <g id="line2d_33">
      <path d="M 315.1865 273.317812 
L 315.1865 23.837812 
" clip-path="url(#p6d4b450000)" style="fill: none; stroke: #d3d3d3; stroke-width: 0.8; stroke-linecap: square"/>
     </g>
     <g id="line2d_34">
      <g>
       <use xlink:href="#m5f3cba980d" x="315.1865" y="273.317812" style="stroke: #000000; stroke-width: 0.8"/>
      </g>
     </g>
     <g id="text_17">
      <!-- 2016 -->
      <g transform="translate(317.945875 305.767812) rotate(-90) scale(0.1 -0.1)">
       <use xlink:href="#DejaVuSans-32"/>
       <use xlink:href="#DejaVuSans-30" transform="translate(63.623047 0)"/>
       <use xlink:href="#DejaVuSans-31" transform="translate(127.246094 0)"/>
       <use xlink:href="#DejaVuSans-36" transform="translate(190.869141 0)"/>
      </g>
     </g>
    </g>
    <g id="xtick_18">
     <g id="line2d_35">
      <path d="M 333.0425 273.317812 
L 333.0425 23.837812 
" clip-path="url(#p6d4b450000)" style="fill: none; stroke: #d3d3d3; stroke-width: 0.8; stroke-linecap: square"/>
     </g>
     <g id="line2d_36">
      <g>
       <use xlink:href="#m5f3cba980d" x="333.0425" y="273.317812" style="stroke: #000000; stroke-width: 0.8"/>
      </g>
     </g>
     <g id="text_18">
      <!-- 2017 -->
      <g transform="translate(335.801875 305.767812) rotate(-90) scale(0.1 -0.1)">
       <use xlink:href="#DejaVuSans-32"/>
       <use xlink:href="#DejaVuSans-30" transform="translate(63.623047 0)"/>
       <use xlink:href="#DejaVuSans-31" transform="translate(127.246094 0)"/>
       <use xlink:href="#DejaVuSans-37" transform="translate(190.869141 0)"/>
      </g>
     </g>
    </g>
    <g id="xtick_19">
     <g id="line2d_37">
      <path d="M 350.8985 273.317812 
L 350.8985 23.837812 
" clip-path="url(#p6d4b450000)" style="fill: none; stroke: #d3d3d3; stroke-width: 0.8; stroke-linecap: square"/>
     </g>
     <g id="line2d_38">
      <g>
       <use xlink:href="#m5f3cba980d" x="350.8985" y="273.317812" style="stroke: #000000; stroke-width: 0.8"/>
      </g>
     </g>
     <g id="text_19">
      <!-- 2018 -->
      <g transform="translate(353.657875 305.767812) rotate(-90) scale(0.1 -0.1)">
       <use xlink:href="#DejaVuSans-32"/>
       <use xlink:href="#DejaVuSans-30" transform="translate(63.623047 0)"/>
       <use xlink:href="#DejaVuSans-31" transform="translate(127.246094 0)"/>
       <use xlink:href="#DejaVuSans-38" transform="translate(190.869141 0)"/>
      </g>
     </g>
    </g>
    <g id="xtick_20">
     <g id="line2d_39">
      <path d="M 368.7545 273.317812 
L 368.7545 23.837812 
" clip-path="url(#p6d4b450000)" style="fill: none; stroke: #d3d3d3; stroke-width: 0.8; stroke-linecap: square"/>
     </g>
     <g id="line2d_40">
      <g>
       <use xlink:href="#m5f3cba980d" x="368.7545" y="273.317812" style="stroke: #000000; stroke-width: 0.8"/>
      </g>
     </g>
     <g id="text_20">
      <!-- 2019 -->
      <g transform="translate(371.513875 305.767812) rotate(-90) scale(0.1 -0.1)">
       <use xlink:href="#DejaVuSans-32"/>
       <use xlink:href="#DejaVuSans-30" transform="translate(63.623047 0)"/>
       <use xlink:href="#DejaVuSans-31" transform="translate(127.246094 0)"/>
       <use xlink:href="#DejaVuSans-39" transform="translate(190.869141 0)"/>
      </g>
     </g>
    </g>
    <g id="xtick_21">
     <g id="line2d_41">
      <path d="M 386.6105 273.317812 
L 386.6105 23.837812 
" clip-path="url(#p6d4b450000)" style="fill: none; stroke: #d3d3d3; stroke-width: 0.8; stroke-linecap: square"/>
     </g>
     <g id="line2d_42">
      <g>
       <use xlink:href="#m5f3cba980d" x="386.6105" y="273.317812" style="stroke: #000000; stroke-width: 0.8"/>
      </g>
     </g>
     <g id="text_21">
      <!-- 2020 -->
      <g transform="translate(389.369875 305.767812) rotate(-90) scale(0.1 -0.1)">
       <use xlink:href="#DejaVuSans-32"/>
       <use xlink:href="#DejaVuSans-30" transform="translate(63.623047 0)"/>
       <use xlink:href="#DejaVuSans-32" transform="translate(127.246094 0)"/>
       <use xlink:href="#DejaVuSans-30" transform="translate(190.869141 0)"/>
      </g>
     </g>
    </g>
    <g id="xtick_22">
     <g id="line2d_43">
      <path d="M 404.4665 273.317812 
L 404.4665 23.837812 
" clip-path="url(#p6d4b450000)" style="fill: none; stroke: #d3d3d3; stroke-width: 0.8; stroke-linecap: square"/>
     </g>
     <g id="line2d_44">
      <g>
       <use xlink:href="#m5f3cba980d" x="404.4665" y="273.317812" style="stroke: #000000; stroke-width: 0.8"/>
      </g>
     </g>
     <g id="text_22">
      <!-- 2021 -->
      <g transform="translate(407.225875 305.767812) rotate(-90) scale(0.1 -0.1)">
       <use xlink:href="#DejaVuSans-32"/>
       <use xlink:href="#DejaVuSans-30" transform="translate(63.623047 0)"/>
       <use xlink:href="#DejaVuSans-32" transform="translate(127.246094 0)"/>
       <use xlink:href="#DejaVuSans-31" transform="translate(190.869141 0)"/>
      </g>
     </g>
    </g>
    <g id="xtick_23">
     <g id="line2d_45">
      <path d="M 422.3225 273.317812 
L 422.3225 23.837812 
" clip-path="url(#p6d4b450000)" style="fill: none; stroke: #d3d3d3; stroke-width: 0.8; stroke-linecap: square"/>
     </g>
     <g id="line2d_46">
      <g>
       <use xlink:href="#m5f3cba980d" x="422.3225" y="273.317812" style="stroke: #000000; stroke-width: 0.8"/>
      </g>
     </g>
     <g id="text_23">
      <!-- 2022 -->
      <g transform="translate(425.081875 305.767812) rotate(-90) scale(0.1 -0.1)">
       <use xlink:href="#DejaVuSans-32"/>
       <use xlink:href="#DejaVuSans-30" transform="translate(63.623047 0)"/>
       <use xlink:href="#DejaVuSans-32" transform="translate(127.246094 0)"/>
       <use xlink:href="#DejaVuSans-32" transform="translate(190.869141 0)"/>
      </g>
     </g>
    </g>
    <g id="xtick_24">
     <g id="line2d_47">
      <path d="M 440.1785 273.317812 
L 440.1785 23.837812 
" clip-path="url(#p6d4b450000)" style="fill: none; stroke: #d3d3d3; stroke-width: 0.8; stroke-linecap: square"/>
     </g>
     <g id="line2d_48">
      <g>
       <use xlink:href="#m5f3cba980d" x="440.1785" y="273.317812" style="stroke: #000000; stroke-width: 0.8"/>
      </g>
     </g>
     <g id="text_24">
      <!-- 2023 -->
      <g transform="translate(442.937875 305.767812) rotate(-90) scale(0.1 -0.1)">
       <use xlink:href="#DejaVuSans-32"/>
       <use xlink:href="#DejaVuSans-30" transform="translate(63.623047 0)"/>
       <use xlink:href="#DejaVuSans-32" transform="translate(127.246094 0)"/>
       <use xlink:href="#DejaVuSans-33" transform="translate(190.869141 0)"/>
      </g>
     </g>
    </g>
    <g id="xtick_25">
     <g id="line2d_49">
      <path d="M 458.0345 273.317812 
L 458.0345 23.837812 
" clip-path="url(#p6d4b450000)" style="fill: none; stroke: #d3d3d3; stroke-width: 0.8; stroke-linecap: square"/>
     </g>
     <g id="line2d_50">
      <g>
       <use xlink:href="#m5f3cba980d" x="458.0345" y="273.317812" style="stroke: #000000; stroke-width: 0.8"/>
      </g>
     </g>
     <g id="text_25">
      <!-- 2024 -->
      <g transform="translate(460.793875 305.767812) rotate(-90) scale(0.1 -0.1)">
       <use xlink:href="#DejaVuSans-32"/>
       <use xlink:href="#DejaVuSans-30" transform="translate(63.623047 0)"/>
       <use xlink:href="#DejaVuSans-32" transform="translate(127.246094 0)"/>
       <use xlink:href="#DejaVuSans-34" transform="translate(190.869141 0)"/>
      </g>
     </g>
    </g>
   </g>
   <g id="matplotlib.axis_2">
    <g id="ytick_1">
     <g id="line2d_51">
      <path d="M 20.5625 273.317812 
L 466.9625 273.317812 
" clip-path="url(#p6d4b450000)" style="fill: none; stroke: #d3d3d3; stroke-width: 0.8; stroke-linecap: square"/>
     </g>
     <g id="line2d_52">
      <defs>
       <path id="mc2b6cc8436" d="M 0 0 
L -3.5 0 
" style="stroke: #000000; stroke-width: 0.8"/>
      </defs>
      <g>
       <use xlink:href="#mc2b6cc8436" x="20.5625" y="273.317812" style="stroke: #000000; stroke-width: 0.8"/>
      </g>
     </g>
     <g id="text_26">
      <!-- 0 -->
      <g transform="translate(7.2 277.117031) scale(0.1 -0.1)">
       <use xlink:href="#DejaVuSans-30"/>
      </g>
     </g>
    </g>
    <g id="ytick_2">
     <g id="line2d_53">
      <path d="M 20.5625 245.597812 
L 466.9625 245.597812 
" clip-path="url(#p6d4b450000)" style="fill: none; stroke: #d3d3d3; stroke-width: 0.8; stroke-linecap: square"/>
     </g>
     <g id="line2d_54">
      <g>
       <use xlink:href="#mc2b6cc8436" x="20.5625" y="245.597812" style="stroke: #000000; stroke-width: 0.8"/>
      </g>
     </g>
     <g id="text_27">
      <!-- 1 -->
      <g transform="translate(7.2 249.397031) scale(0.1 -0.1)">
       <use xlink:href="#DejaVuSans-31"/>
      </g>
     </g>
    </g>
    <g id="ytick_3">
     <g id="line2d_55">
      <path d="M 20.5625 217.877812 
L 466.9625 217.877812 
" clip-path="url(#p6d4b450000)" style="fill: none; stroke: #d3d3d3; stroke-width: 0.8; stroke-linecap: square"/>
     </g>
     <g id="line2d_56">
      <g>
       <use xlink:href="#mc2b6cc8436" x="20.5625" y="217.877812" style="stroke: #000000; stroke-width: 0.8"/>
      </g>
     </g>
     <g id="text_28">
      <!-- 2 -->
      <g transform="translate(7.2 221.677031) scale(0.1 -0.1)">
       <use xlink:href="#DejaVuSans-32"/>
      </g>
     </g>
    </g>
    <g id="ytick_4">
     <g id="line2d_57">
      <path d="M 20.5625 190.157812 
L 466.9625 190.157812 
" clip-path="url(#p6d4b450000)" style="fill: none; stroke: #d3d3d3; stroke-width: 0.8; stroke-linecap: square"/>
     </g>
     <g id="line2d_58">
      <g>
       <use xlink:href="#mc2b6cc8436" x="20.5625" y="190.157812" style="stroke: #000000; stroke-width: 0.8"/>
      </g>
     </g>
     <g id="text_29">
      <!-- 3 -->
      <g transform="translate(7.2 193.957031) scale(0.1 -0.1)">
       <use xlink:href="#DejaVuSans-33"/>
      </g>
     </g>
    </g>
    <g id="ytick_5">
     <g id="line2d_59">
      <path d="M 20.5625 162.437812 
L 466.9625 162.437812 
" clip-path="url(#p6d4b450000)" style="fill: none; stroke: #d3d3d3; stroke-width: 0.8; stroke-linecap: square"/>
     </g>
     <g id="line2d_60">
      <g>
       <use xlink:href="#mc2b6cc8436" x="20.5625" y="162.437812" style="stroke: #000000; stroke-width: 0.8"/>
      </g>
     </g>
     <g id="text_30">
      <!-- 4 -->
      <g transform="translate(7.2 166.237031) scale(0.1 -0.1)">
       <use xlink:href="#DejaVuSans-34"/>
      </g>
     </g>
    </g>
    <g id="ytick_6">
     <g id="line2d_61">
      <path d="M 20.5625 134.717812 
L 466.9625 134.717812 
" clip-path="url(#p6d4b450000)" style="fill: none; stroke: #d3d3d3; stroke-width: 0.8; stroke-linecap: square"/>
     </g>
     <g id="line2d_62">
      <g>
       <use xlink:href="#mc2b6cc8436" x="20.5625" y="134.717812" style="stroke: #000000; stroke-width: 0.8"/>
      </g>
     </g>
     <g id="text_31">
      <!-- 5 -->
      <g transform="translate(7.2 138.517031) scale(0.1 -0.1)">
       <use xlink:href="#DejaVuSans-35"/>
      </g>
     </g>
    </g>
    <g id="ytick_7">
     <g id="line2d_63">
      <path d="M 20.5625 106.997812 
L 466.9625 106.997812 
" clip-path="url(#p6d4b450000)" style="fill: none; stroke: #d3d3d3; stroke-width: 0.8; stroke-linecap: square"/>
     </g>
     <g id="line2d_64">
      <g>
       <use xlink:href="#mc2b6cc8436" x="20.5625" y="106.997812" style="stroke: #000000; stroke-width: 0.8"/>
      </g>
     </g>
     <g id="text_32">
      <!-- 6 -->
      <g transform="translate(7.2 110.797031) scale(0.1 -0.1)">
       <use xlink:href="#DejaVuSans-36"/>
      </g>
     </g>
    </g>
    <g id="ytick_8">
     <g id="line2d_65">
      <path d="M 20.5625 79.277812 
L 466.9625 79.277812 
" clip-path="url(#p6d4b450000)" style="fill: none; stroke: #d3d3d3; stroke-width: 0.8; stroke-linecap: square"/>
     </g>
     <g id="line2d_66">
      <g>
       <use xlink:href="#mc2b6cc8436" x="20.5625" y="79.277812" style="stroke: #000000; stroke-width: 0.8"/>
      </g>
     </g>
     <g id="text_33">
      <!-- 7 -->
      <g transform="translate(7.2 83.077031) scale(0.1 -0.1)">
       <use xlink:href="#DejaVuSans-37"/>
      </g>
     </g>
    </g>
    <g id="ytick_9">
     <g id="line2d_67">
      <path d="M 20.5625 51.557812 
L 466.9625 51.557812 
" clip-path="url(#p6d4b450000)" style="fill: none; stroke: #d3d3d3; stroke-width: 0.8; stroke-linecap: square"/>
     </g>
     <g id="line2d_68">
      <g>
       <use xlink:href="#mc2b6cc8436" x="20.5625" y="51.557812" style="stroke: #000000; stroke-width: 0.8"/>
      </g>
     </g>
     <g id="text_34">
      <!-- 8 -->
      <g transform="translate(7.2 55.357031) scale(0.1 -0.1)">
       <use xlink:href="#DejaVuSans-38"/>
      </g>
     </g>
    </g>
    <g id="ytick_10">
     <g id="line2d_69">
      <path d="M 20.5625 23.837812 
L 466.9625 23.837812 
" clip-path="url(#p6d4b450000)" style="fill: none; stroke: #d3d3d3; stroke-width: 0.8; stroke-linecap: square"/>
     </g>
     <g id="line2d_70">
      <g>
       <use xlink:href="#mc2b6cc8436" x="20.5625" y="23.837812" style="stroke: #000000; stroke-width: 0.8"/>
      </g>
     </g>
     <g id="text_35">
      <!-- 9 -->
      <g transform="translate(7.2 27.637031) scale(0.1 -0.1)">
       <use xlink:href="#DejaVuSans-39"/>
      </g>
     </g>
    </g>
   </g>
   <g id="patch_3">
    <path d="M 25.0265 273.317812 
L 33.9545 273.317812 
L 33.9545 273.317812 
L 25.0265 273.317812 
z
" clip-path="url(#p6d4b450000)" style="fill: #1f77b4"/>
   </g>
   <g id="patch_4">
    <path d="M 42.8825 273.317812 
L 51.8105 273.317812 
L 51.8105 273.317812 
L 42.8825 273.317812 
z
" clip-path="url(#p6d4b450000)" style="fill: #1f77b4"/>
   </g>
   <g id="patch_5">
    <path d="M 60.7385 273.317812 
L 69.6665 273.317812 
L 69.6665 273.317812 
L 60.7385 273.317812 
z
" clip-path="url(#p6d4b450000)" style="fill: #1f77b4"/>
   </g>
   <g id="patch_6">
    <path d="M 78.5945 273.317812 
L 87.5225 273.317812 
L 87.5225 273.317812 
L 78.5945 273.317812 
z
" clip-path="url(#p6d4b450000)" style="fill: #1f77b4"/>
   </g>
   <g id="patch_7">
    <path d="M 96.4505 273.317812 
L 105.3785 273.317812 
L 105.3785 273.317812 
L 96.4505 273.317812 
z
" clip-path="url(#p6d4b450000)" style="fill: #1f77b4"/>
   </g>
   <g id="patch_8">
    <path d="M 114.3065 273.317812 
L 123.2345 273.317812 
L 123.2345 273.317812 
L 114.3065 273.317812 
z
" clip-path="url(#p6d4b450000)" style="fill: #1f77b4"/>
   </g>
   <g id="patch_9">
    <path d="M 132.1625 273.317812 
L 141.0905 273.317812 
L 141.0905 273.317812 
L 132.1625 273.317812 
z
" clip-path="url(#p6d4b450000)" style="fill: #1f77b4"/>
   </g>
   <g id="patch_10">
    <path d="M 150.0185 273.317812 
L 158.9465 273.317812 
L 158.9465 273.317812 
L 150.0185 273.317812 
z
" clip-path="url(#p6d4b450000)" style="fill: #1f77b4"/>
   </g>
   <g id="patch_11">
    <path d="M 167.8745 273.317812 
L 176.8025 273.317812 
L 176.8025 273.317812 
L 167.8745 273.317812 
z
" clip-path="url(#p6d4b450000)" style="fill: #1f77b4"/>
   </g>
   <g id="patch_12">
    <path d="M 185.7305 273.317812 
L 194.6585 273.317812 
L 194.6585 273.317812 
L 185.7305 273.317812 
z
" clip-path="url(#p6d4b450000)" style="fill: #1f77b4"/>
   </g>
   <g id="patch_13">
    <path d="M 203.5865 273.317812 
L 212.5145 273.317812 
L 212.5145 273.317812 
L 203.5865 273.317812 
z
" clip-path="url(#p6d4b450000)" style="fill: #1f77b4"/>
   </g>
   <g id="patch_14">
    <path d="M 221.4425 273.317812 
L 230.3705 273.317812 
L 230.3705 273.317812 
L 221.4425 273.317812 
z
" clip-path="url(#p6d4b450000)" style="fill: #1f77b4"/>
   </g>
   <g id="patch_15">
    <path d="M 239.2985 273.317812 
L 248.2265 273.317812 
L 248.2265 273.317812 
L 239.2985 273.317812 
z
" clip-path="url(#p6d4b450000)" style="fill: #1f77b4"/>
   </g>
   <g id="patch_16">
    <path d="M 257.1545 273.317812 
L 266.0825 273.317812 
L 266.0825 273.317812 
L 257.1545 273.317812 
z
" clip-path="url(#p6d4b450000)" style="fill: #1f77b4"/>
   </g>
   <g id="patch_17">
    <path d="M 275.0105 273.317812 
L 283.9385 273.317812 
L 283.9385 273.317812 
L 275.0105 273.317812 
z
" clip-path="url(#p6d4b450000)" style="fill: #1f77b4"/>
   </g>
   <g id="patch_18">
    <path d="M 292.8665 273.317812 
L 301.7945 273.317812 
L 301.7945 273.317812 
L 292.8665 273.317812 
z
" clip-path="url(#p6d4b450000)" style="fill: #1f77b4"/>
   </g>
   <g id="patch_19">
    <path d="M 310.7225 273.317812 
L 319.6505 273.317812 
L 319.6505 273.317812 
L 310.7225 273.317812 
z
" clip-path="url(#p6d4b450000)" style="fill: #1f77b4"/>
   </g>
   <g id="patch_20">
    <path d="M 328.5785 273.317812 
L 337.5065 273.317812 
L 337.5065 273.317812 
L 328.5785 273.317812 
z
" clip-path="url(#p6d4b450000)" style="fill: #1f77b4"/>
   </g>
   <g id="patch_21">
    <path d="M 346.4345 273.317812 
L 355.3625 273.317812 
L 355.3625 273.317812 
L 346.4345 273.317812 
z
" clip-path="url(#p6d4b450000)" style="fill: #1f77b4"/>
   </g>
   <g id="patch_22">
    <path d="M 364.2905 273.317812 
L 373.2185 273.317812 
L 373.2185 273.317812 
L 364.2905 273.317812 
z
" clip-path="url(#p6d4b450000)" style="fill: #1f77b4"/>
   </g>
   <g id="patch_23">
    <path d="M 382.1465 273.317812 
L 391.0745 273.317812 
L 391.0745 273.317812 
L 382.1465 273.317812 
z
" clip-path="url(#p6d4b450000)" style="fill: #1f77b4"/>
   </g>
   <g id="patch_24">
    <path d="M 400.0025 273.317812 
L 408.9305 273.317812 
L 408.9305 273.317812 
L 400.0025 273.317812 
z
" clip-path="url(#p6d4b450000)" style="fill: #1f77b4"/>
   </g>
   <g id="patch_25">
    <path d="M 417.8585 273.317812 
L 426.7865 273.317812 
L 426.7865 273.317812 
L 417.8585 273.317812 
z
" clip-path="url(#p6d4b450000)" style="fill: #1f77b4"/>
   </g>
   <g id="patch_26">
    <path d="M 435.7145 273.317812 
L 444.6425 273.317812 
L 444.6425 273.317812 
L 435.7145 273.317812 
z
" clip-path="url(#p6d4b450000)" style="fill: #1f77b4"/>
   </g>
   <g id="patch_27">
    <path d="M 453.5705 273.317812 
L 462.4985 273.317812 
L 462.4985 273.317812 
L 453.5705 273.317812 
z
" clip-path="url(#p6d4b450000)" style="fill: #1f77b4"/>
   </g>
   <g id="patch_28">
    <path d="M 25.0265 273.317812 
L 33.9545 273.317812 
L 33.9545 273.317812 
L 25.0265 273.317812 
z
" clip-path="url(#p6d4b450000)" style="fill: #ff7f0e"/>
   </g>
   <g id="patch_29">
    <path d="M 42.8825 273.317812 
L 51.8105 273.317812 
L 51.8105 273.317812 
L 42.8825 273.317812 
z
" clip-path="url(#p6d4b450000)" style="fill: #ff7f0e"/>
   </g>
   <g id="patch_30">
    <path d="M 60.7385 273.317812 
L 69.6665 273.317812 
L 69.6665 273.317812 
L 60.7385 273.317812 
z
" clip-path="url(#p6d4b450000)" style="fill: #ff7f0e"/>
   </g>
   <g id="patch_31">
    <path d="M 78.5945 273.317812 
L 87.5225 273.317812 
L 87.5225 273.317812 
L 78.5945 273.317812 
z
" clip-path="url(#p6d4b450000)" style="fill: #ff7f0e"/>
   </g>
   <g id="patch_32">
    <path d="M 96.4505 273.317812 
L 105.3785 273.317812 
L 105.3785 273.317812 
L 96.4505 273.317812 
z
" clip-path="url(#p6d4b450000)" style="fill: #ff7f0e"/>
   </g>
   <g id="patch_33">
    <path d="M 114.3065 273.317812 
L 123.2345 273.317812 
L 123.2345 273.317812 
L 114.3065 273.317812 
z
" clip-path="url(#p6d4b450000)" style="fill: #ff7f0e"/>
   </g>
   <g id="patch_34">
    <path d="M 132.1625 273.317812 
L 141.0905 273.317812 
L 141.0905 273.317812 
L 132.1625 273.317812 
z
" clip-path="url(#p6d4b450000)" style="fill: #ff7f0e"/>
   </g>
   <g id="patch_35">
    <path d="M 150.0185 273.317812 
L 158.9465 273.317812 
L 158.9465 273.317812 
L 150.0185 273.317812 
z
" clip-path="url(#p6d4b450000)" style="fill: #ff7f0e"/>
   </g>
   <g id="patch_36">
    <path d="M 167.8745 273.317812 
L 176.8025 273.317812 
L 176.8025 273.317812 
L 167.8745 273.317812 
z
" clip-path="url(#p6d4b450000)" style="fill: #ff7f0e"/>
   </g>
   <g id="patch_37">
    <path d="M 185.7305 273.317812 
L 194.6585 273.317812 
L 194.6585 273.317812 
L 185.7305 273.317812 
z
" clip-path="url(#p6d4b450000)" style="fill: #ff7f0e"/>
   </g>
   <g id="patch_38">
    <path d="M 203.5865 273.317812 
L 212.5145 273.317812 
L 212.5145 273.317812 
L 203.5865 273.317812 
z
" clip-path="url(#p6d4b450000)" style="fill: #ff7f0e"/>
   </g>
   <g id="patch_39">
    <path d="M 221.4425 273.317812 
L 230.3705 273.317812 
L 230.3705 273.317812 
L 221.4425 273.317812 
z
" clip-path="url(#p6d4b450000)" style="fill: #ff7f0e"/>
   </g>
   <g id="patch_40">
    <path d="M 239.2985 273.317812 
L 248.2265 273.317812 
L 248.2265 273.317812 
L 239.2985 273.317812 
z
" clip-path="url(#p6d4b450000)" style="fill: #ff7f0e"/>
   </g>
   <g id="patch_41">
    <path d="M 257.1545 273.317812 
L 266.0825 273.317812 
L 266.0825 273.317812 
L 257.1545 273.317812 
z
" clip-path="url(#p6d4b450000)" style="fill: #ff7f0e"/>
   </g>
   <g id="patch_42">
    <path d="M 275.0105 273.317812 
L 283.9385 273.317812 
L 283.9385 273.317812 
L 275.0105 273.317812 
z
" clip-path="url(#p6d4b450000)" style="fill: #ff7f0e"/>
   </g>
   <g id="patch_43">
    <path d="M 292.8665 273.317812 
L 301.7945 273.317812 
L 301.7945 273.317812 
L 292.8665 273.317812 
z
" clip-path="url(#p6d4b450000)" style="fill: #ff7f0e"/>
   </g>
   <g id="patch_44">
    <path d="M 310.7225 273.317812 
L 319.6505 273.317812 
L 319.6505 273.317812 
L 310.7225 273.317812 
z
" clip-path="url(#p6d4b450000)" style="fill: #ff7f0e"/>
   </g>
   <g id="patch_45">
    <path d="M 328.5785 273.317812 
L 337.5065 273.317812 
L 337.5065 273.317812 
L 328.5785 273.317812 
z
" clip-path="url(#p6d4b450000)" style="fill: #ff7f0e"/>
   </g>
   <g id="patch_46">
    <path d="M 346.4345 273.317812 
L 355.3625 273.317812 
L 355.3625 273.317812 
L 346.4345 273.317812 
z
" clip-path="url(#p6d4b450000)" style="fill: #ff7f0e"/>
   </g>
   <g id="patch_47">
    <path d="M 364.2905 273.317812 
L 373.2185 273.317812 
L 373.2185 273.317812 
L 364.2905 273.317812 
z
" clip-path="url(#p6d4b450000)" style="fill: #ff7f0e"/>
   </g>
   <g id="patch_48">
    <path d="M 382.1465 273.317812 
L 391.0745 273.317812 
L 391.0745 273.317812 
L 382.1465 273.317812 
z
" clip-path="url(#p6d4b450000)" style="fill: #ff7f0e"/>
   </g>
   <g id="patch_49">
    <path d="M 400.0025 273.317812 
L 408.9305 273.317812 
L 408.9305 273.317812 
L 400.0025 273.317812 
z
" clip-path="url(#p6d4b450000)" style="fill: #ff7f0e"/>
   </g>
   <g id="patch_50">
    <path d="M 417.8585 273.317812 
L 426.7865 273.317812 
L 426.7865 245.597812 
L 417.8585 245.597812 
z
" clip-path="url(#p6d4b450000)" style="fill: #ff7f0e"/>
   </g>
   <g id="patch_51">
    <path d="M 435.7145 273.317812 
L 444.6425 273.317812 
L 444.6425 273.317812 
L 435.7145 273.317812 
z
" clip-path="url(#p6d4b450000)" style="fill: #ff7f0e"/>
   </g>
   <g id="patch_52">
    <path d="M 453.5705 273.317812 
L 462.4985 273.317812 
L 462.4985 273.317812 
L 453.5705 273.317812 
z
" clip-path="url(#p6d4b450000)" style="fill: #ff7f0e"/>
   </g>
   <g id="patch_53">
    <path d="M 25.0265 273.317812 
L 33.9545 273.317812 
L 33.9545 273.317812 
L 25.0265 273.317812 
z
" clip-path="url(#p6d4b450000)" style="fill: #2ca02c"/>
   </g>
   <g id="patch_54">
    <path d="M 42.8825 273.317812 
L 51.8105 273.317812 
L 51.8105 273.317812 
L 42.8825 273.317812 
z
" clip-path="url(#p6d4b450000)" style="fill: #2ca02c"/>
   </g>
   <g id="patch_55">
    <path d="M 60.7385 273.317812 
L 69.6665 273.317812 
L 69.6665 273.317812 
L 60.7385 273.317812 
z
" clip-path="url(#p6d4b450000)" style="fill: #2ca02c"/>
   </g>
   <g id="patch_56">
    <path d="M 78.5945 273.317812 
L 87.5225 273.317812 
L 87.5225 273.317812 
L 78.5945 273.317812 
z
" clip-path="url(#p6d4b450000)" style="fill: #2ca02c"/>
   </g>
   <g id="patch_57">
    <path d="M 96.4505 273.317812 
L 105.3785 273.317812 
L 105.3785 273.317812 
L 96.4505 273.317812 
z
" clip-path="url(#p6d4b450000)" style="fill: #2ca02c"/>
   </g>
   <g id="patch_58">
    <path d="M 114.3065 273.317812 
L 123.2345 273.317812 
L 123.2345 273.317812 
L 114.3065 273.317812 
z
" clip-path="url(#p6d4b450000)" style="fill: #2ca02c"/>
   </g>
   <g id="patch_59">
    <path d="M 132.1625 273.317812 
L 141.0905 273.317812 
L 141.0905 273.317812 
L 132.1625 273.317812 
z
" clip-path="url(#p6d4b450000)" style="fill: #2ca02c"/>
   </g>
   <g id="patch_60">
    <path d="M 150.0185 273.317812 
L 158.9465 273.317812 
L 158.9465 273.317812 
L 150.0185 273.317812 
z
" clip-path="url(#p6d4b450000)" style="fill: #2ca02c"/>
   </g>
   <g id="patch_61">
    <path d="M 167.8745 273.317812 
L 176.8025 273.317812 
L 176.8025 273.317812 
L 167.8745 273.317812 
z
" clip-path="url(#p6d4b450000)" style="fill: #2ca02c"/>
   </g>
   <g id="patch_62">
    <path d="M 185.7305 273.317812 
L 194.6585 273.317812 
L 194.6585 273.317812 
L 185.7305 273.317812 
z
" clip-path="url(#p6d4b450000)" style="fill: #2ca02c"/>
   </g>
   <g id="patch_63">
    <path d="M 203.5865 273.317812 
L 212.5145 273.317812 
L 212.5145 273.317812 
L 203.5865 273.317812 
z
" clip-path="url(#p6d4b450000)" style="fill: #2ca02c"/>
   </g>
   <g id="patch_64">
    <path d="M 221.4425 273.317812 
L 230.3705 273.317812 
L 230.3705 273.317812 
L 221.4425 273.317812 
z
" clip-path="url(#p6d4b450000)" style="fill: #2ca02c"/>
   </g>
   <g id="patch_65">
    <path d="M 239.2985 273.317812 
L 248.2265 273.317812 
L 248.2265 273.317812 
L 239.2985 273.317812 
z
" clip-path="url(#p6d4b450000)" style="fill: #2ca02c"/>
   </g>
   <g id="patch_66">
    <path d="M 257.1545 273.317812 
L 266.0825 273.317812 
L 266.0825 273.317812 
L 257.1545 273.317812 
z
" clip-path="url(#p6d4b450000)" style="fill: #2ca02c"/>
   </g>
   <g id="patch_67">
    <path d="M 275.0105 273.317812 
L 283.9385 273.317812 
L 283.9385 273.317812 
L 275.0105 273.317812 
z
" clip-path="url(#p6d4b450000)" style="fill: #2ca02c"/>
   </g>
   <g id="patch_68">
    <path d="M 292.8665 273.317812 
L 301.7945 273.317812 
L 301.7945 273.317812 
L 292.8665 273.317812 
z
" clip-path="url(#p6d4b450000)" style="fill: #2ca02c"/>
   </g>
   <g id="patch_69">
    <path d="M 310.7225 273.317812 
L 319.6505 273.317812 
L 319.6505 273.317812 
L 310.7225 273.317812 
z
" clip-path="url(#p6d4b450000)" style="fill: #2ca02c"/>
   </g>
   <g id="patch_70">
    <path d="M 328.5785 273.317812 
L 337.5065 273.317812 
L 337.5065 273.317812 
L 328.5785 273.317812 
z
" clip-path="url(#p6d4b450000)" style="fill: #2ca02c"/>
   </g>
   <g id="patch_71">
    <path d="M 346.4345 273.317812 
L 355.3625 273.317812 
L 355.3625 273.317812 
L 346.4345 273.317812 
z
" clip-path="url(#p6d4b450000)" style="fill: #2ca02c"/>
   </g>
   <g id="patch_72">
    <path d="M 364.2905 273.317812 
L 373.2185 273.317812 
L 373.2185 273.317812 
L 364.2905 273.317812 
z
" clip-path="url(#p6d4b450000)" style="fill: #2ca02c"/>
   </g>
   <g id="patch_73">
    <path d="M 382.1465 273.317812 
L 391.0745 273.317812 
L 391.0745 273.317812 
L 382.1465 273.317812 
z
" clip-path="url(#p6d4b450000)" style="fill: #2ca02c"/>
   </g>
   <g id="patch_74">
    <path d="M 400.0025 273.317812 
L 408.9305 273.317812 
L 408.9305 273.317812 
L 400.0025 273.317812 
z
" clip-path="url(#p6d4b450000)" style="fill: #2ca02c"/>
   </g>
   <g id="patch_75">
    <path d="M 417.8585 273.317812 
L 426.7865 273.317812 
L 426.7865 273.317812 
L 417.8585 273.317812 
z
" clip-path="url(#p6d4b450000)" style="fill: #2ca02c"/>
   </g>
   <g id="patch_76">
    <path d="M 435.7145 273.317812 
L 444.6425 273.317812 
L 444.6425 273.317812 
L 435.7145 273.317812 
z
" clip-path="url(#p6d4b450000)" style="fill: #2ca02c"/>
   </g>
   <g id="patch_77">
    <path d="M 453.5705 273.317812 
L 462.4985 273.317812 
L 462.4985 273.317812 
L 453.5705 273.317812 
z
" clip-path="url(#p6d4b450000)" style="fill: #2ca02c"/>
   </g>
   <g id="patch_78">
    <path d="M 25.0265 273.317812 
L 33.9545 273.317812 
L 33.9545 273.317812 
L 25.0265 273.317812 
z
" clip-path="url(#p6d4b450000)" style="fill: #d62728"/>
   </g>
   <g id="patch_79">
    <path d="M 42.8825 273.317812 
L 51.8105 273.317812 
L 51.8105 273.317812 
L 42.8825 273.317812 
z
" clip-path="url(#p6d4b450000)" style="fill: #d62728"/>
   </g>
   <g id="patch_80">
    <path d="M 60.7385 273.317812 
L 69.6665 273.317812 
L 69.6665 273.317812 
L 60.7385 273.317812 
z
" clip-path="url(#p6d4b450000)" style="fill: #d62728"/>
   </g>
   <g id="patch_81">
    <path d="M 78.5945 273.317812 
L 87.5225 273.317812 
L 87.5225 273.317812 
L 78.5945 273.317812 
z
" clip-path="url(#p6d4b450000)" style="fill: #d62728"/>
   </g>
   <g id="patch_82">
    <path d="M 96.4505 273.317812 
L 105.3785 273.317812 
L 105.3785 273.317812 
L 96.4505 273.317812 
z
" clip-path="url(#p6d4b450000)" style="fill: #d62728"/>
   </g>
   <g id="patch_83">
    <path d="M 114.3065 273.317812 
L 123.2345 273.317812 
L 123.2345 273.317812 
L 114.3065 273.317812 
z
" clip-path="url(#p6d4b450000)" style="fill: #d62728"/>
   </g>
   <g id="patch_84">
    <path d="M 132.1625 273.317812 
L 141.0905 273.317812 
L 141.0905 273.317812 
L 132.1625 273.317812 
z
" clip-path="url(#p6d4b450000)" style="fill: #d62728"/>
   </g>
   <g id="patch_85">
    <path d="M 150.0185 273.317812 
L 158.9465 273.317812 
L 158.9465 273.317812 
L 150.0185 273.317812 
z
" clip-path="url(#p6d4b450000)" style="fill: #d62728"/>
   </g>
   <g id="patch_86">
    <path d="M 167.8745 273.317812 
L 176.8025 273.317812 
L 176.8025 273.317812 
L 167.8745 273.317812 
z
" clip-path="url(#p6d4b450000)" style="fill: #d62728"/>
   </g>
   <g id="patch_87">
    <path d="M 185.7305 273.317812 
L 194.6585 273.317812 
L 194.6585 273.317812 
L 185.7305 273.317812 
z
" clip-path="url(#p6d4b450000)" style="fill: #d62728"/>
   </g>
   <g id="patch_88">
    <path d="M 203.5865 273.317812 
L 212.5145 273.317812 
L 212.5145 273.317812 
L 203.5865 273.317812 
z
" clip-path="url(#p6d4b450000)" style="fill: #d62728"/>
   </g>
   <g id="patch_89">
    <path d="M 221.4425 273.317812 
L 230.3705 273.317812 
L 230.3705 217.877812 
L 221.4425 217.877812 
z
" clip-path="url(#p6d4b450000)" style="fill: #d62728"/>
   </g>
   <g id="patch_90">
    <path d="M 239.2985 273.317812 
L 248.2265 273.317812 
L 248.2265 217.877812 
L 239.2985 217.877812 
z
" clip-path="url(#p6d4b450000)" style="fill: #d62728"/>
   </g>
   <g id="patch_91">
    <path d="M 257.1545 273.317812 
L 266.0825 273.317812 
L 266.0825 245.597812 
L 257.1545 245.597812 
z
" clip-path="url(#p6d4b450000)" style="fill: #d62728"/>
   </g>
   <g id="patch_92">
    <path d="M 275.0105 273.317812 
L 283.9385 273.317812 
L 283.9385 245.597812 
L 275.0105 245.597812 
z
" clip-path="url(#p6d4b450000)" style="fill: #d62728"/>
   </g>
   <g id="patch_93">
    <path d="M 292.8665 273.317812 
L 301.7945 273.317812 
L 301.7945 273.317812 
L 292.8665 273.317812 
z
" clip-path="url(#p6d4b450000)" style="fill: #d62728"/>
   </g>
   <g id="patch_94">
    <path d="M 310.7225 273.317812 
L 319.6505 273.317812 
L 319.6505 245.597812 
L 310.7225 245.597812 
z
" clip-path="url(#p6d4b450000)" style="fill: #d62728"/>
   </g>
   <g id="patch_95">
    <path d="M 328.5785 273.317812 
L 337.5065 273.317812 
L 337.5065 273.317812 
L 328.5785 273.317812 
z
" clip-path="url(#p6d4b450000)" style="fill: #d62728"/>
   </g>
   <g id="patch_96">
    <path d="M 346.4345 273.317812 
L 355.3625 273.317812 
L 355.3625 273.317812 
L 346.4345 273.317812 
z
" clip-path="url(#p6d4b450000)" style="fill: #d62728"/>
   </g>
   <g id="patch_97">
    <path d="M 364.2905 273.317812 
L 373.2185 273.317812 
L 373.2185 245.597812 
L 364.2905 245.597812 
z
" clip-path="url(#p6d4b450000)" style="fill: #d62728"/>
   </g>
   <g id="patch_98">
    <path d="M 382.1465 273.317812 
L 391.0745 273.317812 
L 391.0745 245.597812 
L 382.1465 245.597812 
z
" clip-path="url(#p6d4b450000)" style="fill: #d62728"/>
   </g>
   <g id="patch_99">
    <path d="M 400.0025 273.317812 
L 408.9305 273.317812 
L 408.9305 245.597812 
L 400.0025 245.597812 
z
" clip-path="url(#p6d4b450000)" style="fill: #d62728"/>
   </g>
   <g id="patch_100">
    <path d="M 417.8585 245.597812 
L 426.7865 245.597812 
L 426.7865 106.997812 
L 417.8585 106.997812 
z
" clip-path="url(#p6d4b450000)" style="fill: #d62728"/>
   </g>
   <g id="patch_101">
    <path d="M 435.7145 273.317812 
L 444.6425 273.317812 
L 444.6425 190.157812 
L 435.7145 190.157812 
z
" clip-path="url(#p6d4b450000)" style="fill: #d62728"/>
   </g>
   <g id="patch_102">
    <path d="M 453.5705 273.317812 
L 462.4985 273.317812 
L 462.4985 51.557812 
L 453.5705 51.557812 
z
" clip-path="url(#p6d4b450000)" style="fill: #d62728"/>
   </g>
   <g id="patch_103">
    <path d="M 25.0265 273.317812 
L 33.9545 273.317812 
L 33.9545 273.317812 
L 25.0265 273.317812 
z
" clip-path="url(#p6d4b450000)" style="fill: #9467bd"/>
   </g>
   <g id="patch_104">
    <path d="M 42.8825 273.317812 
L 51.8105 273.317812 
L 51.8105 273.317812 
L 42.8825 273.317812 
z
" clip-path="url(#p6d4b450000)" style="fill: #9467bd"/>
   </g>
   <g id="patch_105">
    <path d="M 60.7385 273.317812 
L 69.6665 273.317812 
L 69.6665 273.317812 
L 60.7385 273.317812 
z
" clip-path="url(#p6d4b450000)" style="fill: #9467bd"/>
   </g>
   <g id="patch_106">
    <path d="M 78.5945 273.317812 
L 87.5225 273.317812 
L 87.5225 273.317812 
L 78.5945 273.317812 
z
" clip-path="url(#p6d4b450000)" style="fill: #9467bd"/>
   </g>
   <g id="patch_107">
    <path d="M 96.4505 273.317812 
L 105.3785 273.317812 
L 105.3785 273.317812 
L 96.4505 273.317812 
z
" clip-path="url(#p6d4b450000)" style="fill: #9467bd"/>
   </g>
   <g id="patch_108">
    <path d="M 114.3065 273.317812 
L 123.2345 273.317812 
L 123.2345 273.317812 
L 114.3065 273.317812 
z
" clip-path="url(#p6d4b450000)" style="fill: #9467bd"/>
   </g>
   <g id="patch_109">
    <path d="M 132.1625 273.317812 
L 141.0905 273.317812 
L 141.0905 273.317812 
L 132.1625 273.317812 
z
" clip-path="url(#p6d4b450000)" style="fill: #9467bd"/>
   </g>
   <g id="patch_110">
    <path d="M 150.0185 273.317812 
L 158.9465 273.317812 
L 158.9465 273.317812 
L 150.0185 273.317812 
z
" clip-path="url(#p6d4b450000)" style="fill: #9467bd"/>
   </g>
   <g id="patch_111">
    <path d="M 167.8745 273.317812 
L 176.8025 273.317812 
L 176.8025 273.317812 
L 167.8745 273.317812 
z
" clip-path="url(#p6d4b450000)" style="fill: #9467bd"/>
   </g>
   <g id="patch_112">
    <path d="M 185.7305 273.317812 
L 194.6585 273.317812 
L 194.6585 273.317812 
L 185.7305 273.317812 
z
" clip-path="url(#p6d4b450000)" style="fill: #9467bd"/>
   </g>
   <g id="patch_113">
    <path d="M 203.5865 273.317812 
L 212.5145 273.317812 
L 212.5145 273.317812 
L 203.5865 273.317812 
z
" clip-path="url(#p6d4b450000)" style="fill: #9467bd"/>
   </g>
   <g id="patch_114">
    <path d="M 221.4425 273.317812 
L 230.3705 273.317812 
L 230.3705 273.317812 
L 221.4425 273.317812 
z
" clip-path="url(#p6d4b450000)" style="fill: #9467bd"/>
   </g>
   <g id="patch_115">
    <path d="M 239.2985 273.317812 
L 248.2265 273.317812 
L 248.2265 273.317812 
L 239.2985 273.317812 
z
" clip-path="url(#p6d4b450000)" style="fill: #9467bd"/>
   </g>
   <g id="patch_116">
    <path d="M 257.1545 273.317812 
L 266.0825 273.317812 
L 266.0825 273.317812 
L 257.1545 273.317812 
z
" clip-path="url(#p6d4b450000)" style="fill: #9467bd"/>
   </g>
   <g id="patch_117">
    <path d="M 275.0105 273.317812 
L 283.9385 273.317812 
L 283.9385 273.317812 
L 275.0105 273.317812 
z
" clip-path="url(#p6d4b450000)" style="fill: #9467bd"/>
   </g>
   <g id="patch_118">
    <path d="M 292.8665 273.317812 
L 301.7945 273.317812 
L 301.7945 273.317812 
L 292.8665 273.317812 
z
" clip-path="url(#p6d4b450000)" style="fill: #9467bd"/>
   </g>
   <g id="patch_119">
    <path d="M 310.7225 273.317812 
L 319.6505 273.317812 
L 319.6505 273.317812 
L 310.7225 273.317812 
z
" clip-path="url(#p6d4b450000)" style="fill: #9467bd"/>
   </g>
   <g id="patch_120">
    <path d="M 328.5785 273.317812 
L 337.5065 273.317812 
L 337.5065 273.317812 
L 328.5785 273.317812 
z
" clip-path="url(#p6d4b450000)" style="fill: #9467bd"/>
   </g>
   <g id="patch_121">
    <path d="M 346.4345 273.317812 
L 355.3625 273.317812 
L 355.3625 273.317812 
L 346.4345 273.317812 
z
" clip-path="url(#p6d4b450000)" style="fill: #9467bd"/>
   </g>
   <g id="patch_122">
    <path d="M 364.2905 273.317812 
L 373.2185 273.317812 
L 373.2185 273.317812 
L 364.2905 273.317812 
z
" clip-path="url(#p6d4b450000)" style="fill: #9467bd"/>
   </g>
   <g id="patch_123">
    <path d="M 382.1465 273.317812 
L 391.0745 273.317812 
L 391.0745 273.317812 
L 382.1465 273.317812 
z
" clip-path="url(#p6d4b450000)" style="fill: #9467bd"/>
   </g>
   <g id="patch_124">
    <path d="M 400.0025 273.317812 
L 408.9305 273.317812 
L 408.9305 273.317812 
L 400.0025 273.317812 
z
" clip-path="url(#p6d4b450000)" style="fill: #9467bd"/>
   </g>
   <g id="patch_125">
    <path d="M 417.8585 273.317812 
L 426.7865 273.317812 
L 426.7865 273.317812 
L 417.8585 273.317812 
z
" clip-path="url(#p6d4b450000)" style="fill: #9467bd"/>
   </g>
   <g id="patch_126">
    <path d="M 435.7145 273.317812 
L 444.6425 273.317812 
L 444.6425 273.317812 
L 435.7145 273.317812 
z
" clip-path="url(#p6d4b450000)" style="fill: #9467bd"/>
   </g>
   <g id="patch_127">
    <path d="M 453.5705 273.317812 
L 462.4985 273.317812 
L 462.4985 273.317812 
L 453.5705 273.317812 
z
" clip-path="url(#p6d4b450000)" style="fill: #9467bd"/>
   </g>
   <g id="patch_128">
    <path d="M 25.0265 273.317812 
L 33.9545 273.317812 
L 33.9545 273.317812 
L 25.0265 273.317812 
z
" clip-path="url(#p6d4b450000)" style="fill: #8c564b"/>
   </g>
   <g id="patch_129">
    <path d="M 42.8825 273.317812 
L 51.8105 273.317812 
L 51.8105 273.317812 
L 42.8825 273.317812 
z
" clip-path="url(#p6d4b450000)" style="fill: #8c564b"/>
   </g>
   <g id="patch_130">
    <path d="M 60.7385 273.317812 
L 69.6665 273.317812 
L 69.6665 273.317812 
L 60.7385 273.317812 
z
" clip-path="url(#p6d4b450000)" style="fill: #8c564b"/>
   </g>
   <g id="patch_131">
    <path d="M 78.5945 273.317812 
L 87.5225 273.317812 
L 87.5225 273.317812 
L 78.5945 273.317812 
z
" clip-path="url(#p6d4b450000)" style="fill: #8c564b"/>
   </g>
   <g id="patch_132">
    <path d="M 96.4505 273.317812 
L 105.3785 273.317812 
L 105.3785 273.317812 
L 96.4505 273.317812 
z
" clip-path="url(#p6d4b450000)" style="fill: #8c564b"/>
   </g>
   <g id="patch_133">
    <path d="M 114.3065 273.317812 
L 123.2345 273.317812 
L 123.2345 273.317812 
L 114.3065 273.317812 
z
" clip-path="url(#p6d4b450000)" style="fill: #8c564b"/>
   </g>
   <g id="patch_134">
    <path d="M 132.1625 273.317812 
L 141.0905 273.317812 
L 141.0905 273.317812 
L 132.1625 273.317812 
z
" clip-path="url(#p6d4b450000)" style="fill: #8c564b"/>
   </g>
   <g id="patch_135">
    <path d="M 150.0185 273.317812 
L 158.9465 273.317812 
L 158.9465 273.317812 
L 150.0185 273.317812 
z
" clip-path="url(#p6d4b450000)" style="fill: #8c564b"/>
   </g>
   <g id="patch_136">
    <path d="M 167.8745 273.317812 
L 176.8025 273.317812 
L 176.8025 273.317812 
L 167.8745 273.317812 
z
" clip-path="url(#p6d4b450000)" style="fill: #8c564b"/>
   </g>
   <g id="patch_137">
    <path d="M 185.7305 273.317812 
L 194.6585 273.317812 
L 194.6585 273.317812 
L 185.7305 273.317812 
z
" clip-path="url(#p6d4b450000)" style="fill: #8c564b"/>
   </g>
   <g id="patch_138">
    <path d="M 203.5865 273.317812 
L 212.5145 273.317812 
L 212.5145 273.317812 
L 203.5865 273.317812 
z
" clip-path="url(#p6d4b450000)" style="fill: #8c564b"/>
   </g>
   <g id="patch_139">
    <path d="M 221.4425 273.317812 
L 230.3705 273.317812 
L 230.3705 273.317812 
L 221.4425 273.317812 
z
" clip-path="url(#p6d4b450000)" style="fill: #8c564b"/>
   </g>
   <g id="patch_140">
    <path d="M 239.2985 273.317812 
L 248.2265 273.317812 
L 248.2265 273.317812 
L 239.2985 273.317812 
z
" clip-path="url(#p6d4b450000)" style="fill: #8c564b"/>
   </g>
   <g id="patch_141">
    <path d="M 257.1545 273.317812 
L 266.0825 273.317812 
L 266.0825 273.317812 
L 257.1545 273.317812 
z
" clip-path="url(#p6d4b450000)" style="fill: #8c564b"/>
   </g>
   <g id="patch_142">
    <path d="M 275.0105 273.317812 
L 283.9385 273.317812 
L 283.9385 273.317812 
L 275.0105 273.317812 
z
" clip-path="url(#p6d4b450000)" style="fill: #8c564b"/>
   </g>
   <g id="patch_143">
    <path d="M 292.8665 273.317812 
L 301.7945 273.317812 
L 301.7945 273.317812 
L 292.8665 273.317812 
z
" clip-path="url(#p6d4b450000)" style="fill: #8c564b"/>
   </g>
   <g id="patch_144">
    <path d="M 310.7225 273.317812 
L 319.6505 273.317812 
L 319.6505 273.317812 
L 310.7225 273.317812 
z
" clip-path="url(#p6d4b450000)" style="fill: #8c564b"/>
   </g>
   <g id="patch_145">
    <path d="M 328.5785 273.317812 
L 337.5065 273.317812 
L 337.5065 273.317812 
L 328.5785 273.317812 
z
" clip-path="url(#p6d4b450000)" style="fill: #8c564b"/>
   </g>
   <g id="patch_146">
    <path d="M 346.4345 273.317812 
L 355.3625 273.317812 
L 355.3625 273.317812 
L 346.4345 273.317812 
z
" clip-path="url(#p6d4b450000)" style="fill: #8c564b"/>
   </g>
   <g id="patch_147">
    <path d="M 364.2905 273.317812 
L 373.2185 273.317812 
L 373.2185 273.317812 
L 364.2905 273.317812 
z
" clip-path="url(#p6d4b450000)" style="fill: #8c564b"/>
   </g>
   <g id="patch_148">
    <path d="M 382.1465 273.317812 
L 391.0745 273.317812 
L 391.0745 273.317812 
L 382.1465 273.317812 
z
" clip-path="url(#p6d4b450000)" style="fill: #8c564b"/>
   </g>
   <g id="patch_149">
    <path d="M 400.0025 273.317812 
L 408.9305 273.317812 
L 408.9305 273.317812 
L 400.0025 273.317812 
z
" clip-path="url(#p6d4b450000)" style="fill: #8c564b"/>
   </g>
   <g id="patch_150">
    <path d="M 417.8585 273.317812 
L 426.7865 273.317812 
L 426.7865 273.317812 
L 417.8585 273.317812 
z
" clip-path="url(#p6d4b450000)" style="fill: #8c564b"/>
   </g>
   <g id="patch_151">
    <path d="M 435.7145 273.317812 
L 444.6425 273.317812 
L 444.6425 273.317812 
L 435.7145 273.317812 
z
" clip-path="url(#p6d4b450000)" style="fill: #8c564b"/>
   </g>
   <g id="patch_152">
    <path d="M 453.5705 273.317812 
L 462.4985 273.317812 
L 462.4985 273.317812 
L 453.5705 273.317812 
z
" clip-path="url(#p6d4b450000)" style="fill: #8c564b"/>
   </g>
   <g id="patch_153">
    <path d="M 20.5625 273.317812 
L 20.5625 23.837812 
" style="fill: none; stroke: #000000; stroke-width: 0.8; stroke-linejoin: miter; stroke-linecap: square"/>
   </g>
   <g id="patch_154">
    <path d="M 466.9625 273.317812 
L 466.9625 23.837812 
" style="fill: none; stroke: #000000; stroke-width: 0.8; stroke-linejoin: miter; stroke-linecap: square"/>
   </g>
   <g id="patch_155">
    <path d="M 20.5625 273.317812 
L 466.9625 273.317812 
" style="fill: none; stroke: #000000; stroke-width: 0.8; stroke-linejoin: miter; stroke-linecap: square"/>
   </g>
   <g id="patch_156">
    <path d="M 20.5625 23.837812 
L 466.9625 23.837812 
" style="fill: none; stroke: #000000; stroke-width: 0.8; stroke-linejoin: miter; stroke-linecap: square"/>
   </g>
   <g id="text_36">
    <!-- Distributed Energy Resources Facilities by Year Opened - London -->
    <g transform="translate(17.74125 17.837812) scale(0.14 -0.14)">
     <defs>
      <path id="DejaVuSans-44" d="M 1259 4147 
L 1259 519 
L 2022 519 
Q 2988 519 3436 956 
Q 3884 1394 3884 2338 
Q 3884 3275 3436 3711 
Q 2988 4147 2022 4147 
L 1259 4147 
z
M 628 4666 
L 1925 4666 
Q 3281 4666 3915 4102 
Q 4550 3538 4550 2338 
Q 4550 1131 3912 565 
Q 3275 0 1925 0 
L 628 0 
L 628 4666 
z
" transform="scale(0.015625)"/>
      <path id="DejaVuSans-69" d="M 603 3500 
L 1178 3500 
L 1178 0 
L 603 0 
L 603 3500 
z
M 603 4863 
L 1178 4863 
L 1178 4134 
L 603 4134 
L 603 4863 
z
" transform="scale(0.015625)"/>
      <path id="DejaVuSans-73" d="M 2834 3397 
L 2834 2853 
Q 2591 2978 2328 3040 
Q 2066 3103 1784 3103 
Q 1356 3103 1142 2972 
Q 928 2841 928 2578 
Q 928 2378 1081 2264 
Q 1234 2150 1697 2047 
L 1894 2003 
Q 2506 1872 2764 1633 
Q 3022 1394 3022 966 
Q 3022 478 2636 193 
Q 2250 -91 1575 -91 
Q 1294 -91 989 -36 
Q 684 19 347 128 
L 347 722 
Q 666 556 975 473 
Q 1284 391 1588 391 
Q 1994 391 2212 530 
Q 2431 669 2431 922 
Q 2431 1156 2273 1281 
Q 2116 1406 1581 1522 
L 1381 1569 
Q 847 1681 609 1914 
Q 372 2147 372 2553 
Q 372 3047 722 3315 
Q 1072 3584 1716 3584 
Q 2034 3584 2315 3537 
Q 2597 3491 2834 3397 
z
" transform="scale(0.015625)"/>
      <path id="DejaVuSans-74" d="M 1172 4494 
L 1172 3500 
L 2356 3500 
L 2356 3053 
L 1172 3053 
L 1172 1153 
Q 1172 725 1289 603 
Q 1406 481 1766 481 
L 2356 481 
L 2356 0 
L 1766 0 
Q 1100 0 847 248 
Q 594 497 594 1153 
L 594 3053 
L 172 3053 
L 172 3500 
L 594 3500 
L 594 4494 
L 1172 4494 
z
" transform="scale(0.015625)"/>
      <path id="DejaVuSans-72" d="M 2631 2963 
Q 2534 3019 2420 3045 
Q 2306 3072 2169 3072 
Q 1681 3072 1420 2755 
Q 1159 2438 1159 1844 
L 1159 0 
L 581 0 
L 581 3500 
L 1159 3500 
L 1159 2956 
Q 1341 3275 1631 3429 
Q 1922 3584 2338 3584 
Q 2397 3584 2469 3576 
Q 2541 3569 2628 3553 
L 2631 2963 
z
" transform="scale(0.015625)"/>
      <path id="DejaVuSans-62" d="M 3116 1747 
Q 3116 2381 2855 2742 
Q 2594 3103 2138 3103 
Q 1681 3103 1420 2742 
Q 1159 2381 1159 1747 
Q 1159 1113 1420 752 
Q 1681 391 2138 391 
Q 2594 391 2855 752 
Q 3116 1113 3116 1747 
z
M 1159 2969 
Q 1341 3281 1617 3432 
Q 1894 3584 2278 3584 
Q 2916 3584 3314 3078 
Q 3713 2572 3713 1747 
Q 3713 922 3314 415 
Q 2916 -91 2278 -91 
Q 1894 -91 1617 61 
Q 1341 213 1159 525 
L 1159 0 
L 581 0 
L 581 4863 
L 1159 4863 
L 1159 2969 
z
" transform="scale(0.015625)"/>
      <path id="DejaVuSans-75" d="M 544 1381 
L 544 3500 
L 1119 3500 
L 1119 1403 
Q 1119 906 1312 657 
Q 1506 409 1894 409 
Q 2359 409 2629 706 
Q 2900 1003 2900 1516 
L 2900 3500 
L 3475 3500 
L 3475 0 
L 2900 0 
L 2900 538 
Q 2691 219 2414 64 
Q 2138 -91 1772 -91 
Q 1169 -91 856 284 
Q 544 659 544 1381 
z
M 1991 3584 
L 1991 3584 
z
" transform="scale(0.015625)"/>
      <path id="DejaVuSans-65" d="M 3597 1894 
L 3597 1613 
L 953 1613 
Q 991 1019 1311 708 
Q 1631 397 2203 397 
Q 2534 397 2845 478 
Q 3156 559 3463 722 
L 3463 178 
Q 3153 47 2828 -22 
Q 2503 -91 2169 -91 
Q 1331 -91 842 396 
Q 353 884 353 1716 
Q 353 2575 817 3079 
Q 1281 3584 2069 3584 
Q 2775 3584 3186 3129 
Q 3597 2675 3597 1894 
z
M 3022 2063 
Q 3016 2534 2758 2815 
Q 2500 3097 2075 3097 
Q 1594 3097 1305 2825 
Q 1016 2553 972 2059 
L 3022 2063 
z
" transform="scale(0.015625)"/>
      <path id="DejaVuSans-64" d="M 2906 2969 
L 2906 4863 
L 3481 4863 
L 3481 0 
L 2906 0 
L 2906 525 
Q 2725 213 2448 61 
Q 2172 -91 1784 -91 
Q 1150 -91 751 415 
Q 353 922 353 1747 
Q 353 2572 751 3078 
Q 1150 3584 1784 3584 
Q 2172 3584 2448 3432 
Q 2725 3281 2906 2969 
z
M 947 1747 
Q 947 1113 1208 752 
Q 1469 391 1925 391 
Q 2381 391 2643 752 
Q 2906 1113 2906 1747 
Q 2906 2381 2643 2742 
Q 2381 3103 1925 3103 
Q 1469 3103 1208 2742 
Q 947 2381 947 1747 
z
" transform="scale(0.015625)"/>
      <path id="DejaVuSans-20" transform="scale(0.015625)"/>
      <path id="DejaVuSans-45" d="M 628 4666 
L 3578 4666 
L 3578 4134 
L 1259 4134 
L 1259 2753 
L 3481 2753 
L 3481 2222 
L 1259 2222 
L 1259 531 
L 3634 531 
L 3634 0 
L 628 0 
L 628 4666 
z
" transform="scale(0.015625)"/>
      <path id="DejaVuSans-6e" d="M 3513 2113 
L 3513 0 
L 2938 0 
L 2938 2094 
Q 2938 2591 2744 2837 
Q 2550 3084 2163 3084 
Q 1697 3084 1428 2787 
Q 1159 2491 1159 1978 
L 1159 0 
L 581 0 
L 581 3500 
L 1159 3500 
L 1159 2956 
Q 1366 3272 1645 3428 
Q 1925 3584 2291 3584 
Q 2894 3584 3203 3211 
Q 3513 2838 3513 2113 
z
" transform="scale(0.015625)"/>
      <path id="DejaVuSans-67" d="M 2906 1791 
Q 2906 2416 2648 2759 
Q 2391 3103 1925 3103 
Q 1463 3103 1205 2759 
Q 947 2416 947 1791 
Q 947 1169 1205 825 
Q 1463 481 1925 481 
Q 2391 481 2648 825 
Q 2906 1169 2906 1791 
z
M 3481 434 
Q 3481 -459 3084 -895 
Q 2688 -1331 1869 -1331 
Q 1566 -1331 1297 -1286 
Q 1028 -1241 775 -1147 
L 775 -588 
Q 1028 -725 1275 -790 
Q 1522 -856 1778 -856 
Q 2344 -856 2625 -561 
Q 2906 -266 2906 331 
L 2906 616 
Q 2728 306 2450 153 
Q 2172 0 1784 0 
Q 1141 0 747 490 
Q 353 981 353 1791 
Q 353 2603 747 3093 
Q 1141 3584 1784 3584 
Q 2172 3584 2450 3431 
Q 2728 3278 2906 2969 
L 2906 3500 
L 3481 3500 
L 3481 434 
z
" transform="scale(0.015625)"/>
      <path id="DejaVuSans-79" d="M 2059 -325 
Q 1816 -950 1584 -1140 
Q 1353 -1331 966 -1331 
L 506 -1331 
L 506 -850 
L 844 -850 
Q 1081 -850 1212 -737 
Q 1344 -625 1503 -206 
L 1606 56 
L 191 3500 
L 800 3500 
L 1894 763 
L 2988 3500 
L 3597 3500 
L 2059 -325 
z
" transform="scale(0.015625)"/>
      <path id="DejaVuSans-52" d="M 2841 2188 
Q 3044 2119 3236 1894 
Q 3428 1669 3622 1275 
L 4263 0 
L 3584 0 
L 2988 1197 
Q 2756 1666 2539 1819 
Q 2322 1972 1947 1972 
L 1259 1972 
L 1259 0 
L 628 0 
L 628 4666 
L 2053 4666 
Q 2853 4666 3247 4331 
Q 3641 3997 3641 3322 
Q 3641 2881 3436 2590 
Q 3231 2300 2841 2188 
z
M 1259 4147 
L 1259 2491 
L 2053 2491 
Q 2509 2491 2742 2702 
Q 2975 2913 2975 3322 
Q 2975 3731 2742 3939 
Q 2509 4147 2053 4147 
L 1259 4147 
z
" transform="scale(0.015625)"/>
      <path id="DejaVuSans-6f" d="M 1959 3097 
Q 1497 3097 1228 2736 
Q 959 2375 959 1747 
Q 959 1119 1226 758 
Q 1494 397 1959 397 
Q 2419 397 2687 759 
Q 2956 1122 2956 1747 
Q 2956 2369 2687 2733 
Q 2419 3097 1959 3097 
z
M 1959 3584 
Q 2709 3584 3137 3096 
Q 3566 2609 3566 1747 
Q 3566 888 3137 398 
Q 2709 -91 1959 -91 
Q 1206 -91 779 398 
Q 353 888 353 1747 
Q 353 2609 779 3096 
Q 1206 3584 1959 3584 
z
" transform="scale(0.015625)"/>
      <path id="DejaVuSans-63" d="M 3122 3366 
L 3122 2828 
Q 2878 2963 2633 3030 
Q 2388 3097 2138 3097 
Q 1578 3097 1268 2742 
Q 959 2388 959 1747 
Q 959 1106 1268 751 
Q 1578 397 2138 397 
Q 2388 397 2633 464 
Q 2878 531 3122 666 
L 3122 134 
Q 2881 22 2623 -34 
Q 2366 -91 2075 -91 
Q 1284 -91 818 406 
Q 353 903 353 1747 
Q 353 2603 823 3093 
Q 1294 3584 2113 3584 
Q 2378 3584 2631 3529 
Q 2884 3475 3122 3366 
z
" transform="scale(0.015625)"/>
      <path id="DejaVuSans-46" d="M 628 4666 
L 3309 4666 
L 3309 4134 
L 1259 4134 
L 1259 2759 
L 3109 2759 
L 3109 2228 
L 1259 2228 
L 1259 0 
L 628 0 
L 628 4666 
z
" transform="scale(0.015625)"/>
      <path id="DejaVuSans-61" d="M 2194 1759 
Q 1497 1759 1228 1600 
Q 959 1441 959 1056 
Q 959 750 1161 570 
Q 1363 391 1709 391 
Q 2188 391 2477 730 
Q 2766 1069 2766 1631 
L 2766 1759 
L 2194 1759 
z
M 3341 1997 
L 3341 0 
L 2766 0 
L 2766 531 
Q 2569 213 2275 61 
Q 1981 -91 1556 -91 
Q 1019 -91 701 211 
Q 384 513 384 1019 
Q 384 1609 779 1909 
Q 1175 2209 1959 2209 
L 2766 2209 
L 2766 2266 
Q 2766 2663 2505 2880 
Q 2244 3097 1772 3097 
Q 1472 3097 1187 3025 
Q 903 2953 641 2809 
L 641 3341 
Q 956 3463 1253 3523 
Q 1550 3584 1831 3584 
Q 2591 3584 2966 3190 
Q 3341 2797 3341 1997 
z
" transform="scale(0.015625)"/>
      <path id="DejaVuSans-6c" d="M 603 4863 
L 1178 4863 
L 1178 0 
L 603 0 
L 603 4863 
z
" transform="scale(0.015625)"/>
      <path id="DejaVuSans-59" d="M -13 4666 
L 666 4666 
L 1959 2747 
L 3244 4666 
L 3922 4666 
L 2272 2222 
L 2272 0 
L 1638 0 
L 1638 2222 
L -13 4666 
z
" transform="scale(0.015625)"/>
      <path id="DejaVuSans-4f" d="M 2522 4238 
Q 1834 4238 1429 3725 
Q 1025 3213 1025 2328 
Q 1025 1447 1429 934 
Q 1834 422 2522 422 
Q 3209 422 3611 934 
Q 4013 1447 4013 2328 
Q 4013 3213 3611 3725 
Q 3209 4238 2522 4238 
z
M 2522 4750 
Q 3503 4750 4090 4092 
Q 4678 3434 4678 2328 
Q 4678 1225 4090 567 
Q 3503 -91 2522 -91 
Q 1538 -91 948 565 
Q 359 1222 359 2328 
Q 359 3434 948 4092 
Q 1538 4750 2522 4750 
z
" transform="scale(0.015625)"/>
      <path id="DejaVuSans-70" d="M 1159 525 
L 1159 -1331 
L 581 -1331 
L 581 3500 
L 1159 3500 
L 1159 2969 
Q 1341 3281 1617 3432 
Q 1894 3584 2278 3584 
Q 2916 3584 3314 3078 
Q 3713 2572 3713 1747 
Q 3713 922 3314 415 
Q 2916 -91 2278 -91 
Q 1894 -91 1617 61 
Q 1341 213 1159 525 
z
M 3116 1747 
Q 3116 2381 2855 2742 
Q 2594 3103 2138 3103 
Q 1681 3103 1420 2742 
Q 1159 2381 1159 1747 
Q 1159 1113 1420 752 
Q 1681 391 2138 391 
Q 2594 391 2855 752 
Q 3116 1113 3116 1747 
z
" transform="scale(0.015625)"/>
      <path id="DejaVuSans-2d" d="M 313 2009 
L 1997 2009 
L 1997 1497 
L 313 1497 
L 313 2009 
z
" transform="scale(0.015625)"/>
      <path id="DejaVuSans-4c" d="M 628 4666 
L 1259 4666 
L 1259 531 
L 3531 531 
L 3531 0 
L 628 0 
L 628 4666 
z
" transform="scale(0.015625)"/>
     </defs>
     <use xlink:href="#DejaVuSans-44"/>
     <use xlink:href="#DejaVuSans-69" transform="translate(77.001953 0)"/>
     <use xlink:href="#DejaVuSans-73" transform="translate(104.785156 0)"/>
     <use xlink:href="#DejaVuSans-74" transform="translate(156.884766 0)"/>
     <use xlink:href="#DejaVuSans-72" transform="translate(196.09375 0)"/>
     <use xlink:href="#DejaVuSans-69" transform="translate(237.207031 0)"/>
     <use xlink:href="#DejaVuSans-62" transform="translate(264.990234 0)"/>
     <use xlink:href="#DejaVuSans-75" transform="translate(328.466797 0)"/>
     <use xlink:href="#DejaVuSans-74" transform="translate(391.845703 0)"/>
     <use xlink:href="#DejaVuSans-65" transform="translate(431.054688 0)"/>
     <use xlink:href="#DejaVuSans-64" transform="translate(492.578125 0)"/>
     <use xlink:href="#DejaVuSans-20" transform="translate(556.054688 0)"/>
     <use xlink:href="#DejaVuSans-45" transform="translate(587.841797 0)"/>
     <use xlink:href="#DejaVuSans-6e" transform="translate(651.025391 0)"/>
     <use xlink:href="#DejaVuSans-65" transform="translate(714.404297 0)"/>
     <use xlink:href="#DejaVuSans-72" transform="translate(775.927734 0)"/>
     <use xlink:href="#DejaVuSans-67" transform="translate(815.291016 0)"/>
     <use xlink:href="#DejaVuSans-79" transform="translate(878.767578 0)"/>
     <use xlink:href="#DejaVuSans-20" transform="translate(937.947266 0)"/>
     <use xlink:href="#DejaVuSans-52" transform="translate(969.734375 0)"/>
     <use xlink:href="#DejaVuSans-65" transform="translate(1034.716797 0)"/>
     <use xlink:href="#DejaVuSans-73" transform="translate(1096.240234 0)"/>
     <use xlink:href="#DejaVuSans-6f" transform="translate(1148.339844 0)"/>
     <use xlink:href="#DejaVuSans-75" transform="translate(1209.521484 0)"/>
     <use xlink:href="#DejaVuSans-72" transform="translate(1272.900391 0)"/>
     <use xlink:href="#DejaVuSans-63" transform="translate(1311.763672 0)"/>
     <use xlink:href="#DejaVuSans-65" transform="translate(1366.744141 0)"/>
     <use xlink:href="#DejaVuSans-73" transform="translate(1428.267578 0)"/>
     <use xlink:href="#DejaVuSans-20" transform="translate(1480.367188 0)"/>
     <use xlink:href="#DejaVuSans-46" transform="translate(1512.154297 0)"/>
     <use xlink:href="#DejaVuSans-61" transform="translate(1560.548828 0)"/>
     <use xlink:href="#DejaVuSans-63" transform="translate(1621.828125 0)"/>
     <use xlink:href="#DejaVuSans-69" transform="translate(1676.808594 0)"/>
     <use xlink:href="#DejaVuSans-6c" transform="translate(1704.591797 0)"/>
     <use xlink:href="#DejaVuSans-69" transform="translate(1732.375 0)"/>
     <use xlink:href="#DejaVuSans-74" transform="translate(1760.158203 0)"/>
     <use xlink:href="#DejaVuSans-69" transform="translate(1799.367188 0)"/>
     <use xlink:href="#DejaVuSans-65" transform="translate(1827.150391 0)"/>
     <use xlink:href="#DejaVuSans-73" transform="translate(1888.673828 0)"/>
     <use xlink:href="#DejaVuSans-20" transform="translate(1940.773438 0)"/>
     <use xlink:href="#DejaVuSans-62" transform="translate(1972.560547 0)"/>
     <use xlink:href="#DejaVuSans-79" transform="translate(2036.037109 0)"/>
     <use xlink:href="#DejaVuSans-20" transform="translate(2095.216797 0)"/>
     <use xlink:href="#DejaVuSans-59" transform="translate(2127.003906 0)"/>
     <use xlink:href="#DejaVuSans-65" transform="translate(2174.837891 0)"/>
     <use xlink:href="#DejaVuSans-61" transform="translate(2236.361328 0)"/>
     <use xlink:href="#DejaVuSans-72" transform="translate(2297.640625 0)"/>
     <use xlink:href="#DejaVuSans-20" transform="translate(2338.753906 0)"/>
     <use xlink:href="#DejaVuSans-4f" transform="translate(2370.541016 0)"/>
     <use xlink:href="#DejaVuSans-70" transform="translate(2449.251953 0)"/>
     <use xlink:href="#DejaVuSans-65" transform="translate(2512.728516 0)"/>
     <use xlink:href="#DejaVuSans-6e" transform="translate(2574.251953 0)"/>
     <use xlink:href="#DejaVuSans-65" transform="translate(2637.630859 0)"/>
     <use xlink:href="#DejaVuSans-64" transform="translate(2699.154297 0)"/>
     <use xlink:href="#DejaVuSans-20" transform="translate(2762.630859 0)"/>
     <use xlink:href="#DejaVuSans-2d" transform="translate(2794.417969 0)"/>
     <use xlink:href="#DejaVuSans-20" transform="translate(2830.501953 0)"/>
     <use xlink:href="#DejaVuSans-4c" transform="translate(2862.289062 0)"/>
     <use xlink:href="#DejaVuSans-6f" transform="translate(2916.251953 0)"/>
     <use xlink:href="#DejaVuSans-6e" transform="translate(2977.433594 0)"/>
     <use xlink:href="#DejaVuSans-64" transform="translate(3040.8125 0)"/>
     <use xlink:href="#DejaVuSans-6f" transform="translate(3104.289062 0)"/>
     <use xlink:href="#DejaVuSans-6e" transform="translate(3165.470703 0)"/>
    </g>
   </g>
   <g id="legend_1">
    <g id="patch_157">
     <path d="M 473.9625 212.211094 
L 583.28125 212.211094 
Q 585.28125 212.211094 585.28125 210.211094 
L 585.28125 86.944531 
Q 585.28125 84.944531 583.28125 84.944531 
L 473.9625 84.944531 
Q 471.9625 84.944531 471.9625 86.944531 
L 471.9625 210.211094 
Q 471.9625 212.211094 473.9625 212.211094 
z
" style="fill: #ffffff; opacity: 0.8; stroke: #cccccc; stroke-linejoin: miter"/>
    </g>
    <g id="patch_158">
     <path d="M 475.9625 96.542969 
L 495.9625 96.542969 
L 495.9625 89.542969 
L 475.9625 89.542969 
z
" style="fill: #8c564b"/>
    </g>
    <g id="text_37">
     <!-- Wind -->
     <g transform="translate(503.9625 96.542969) scale(0.1 -0.1)">
      <defs>
       <path id="DejaVuSans-57" d="M 213 4666 
L 850 4666 
L 1831 722 
L 2809 4666 
L 3519 4666 
L 4500 722 
L 5478 4666 
L 6119 4666 
L 4947 0 
L 4153 0 
L 3169 4050 
L 2175 0 
L 1381 0 
L 213 4666 
z
" transform="scale(0.015625)"/>
      </defs>
      <use xlink:href="#DejaVuSans-57"/>
      <use xlink:href="#DejaVuSans-69" transform="translate(96.626953 0)"/>
      <use xlink:href="#DejaVuSans-6e" transform="translate(124.410156 0)"/>
      <use xlink:href="#DejaVuSans-64" transform="translate(187.789062 0)"/>
     </g>
    </g>
    <g id="patch_159">
     <path d="M 475.9625 116.221094 
L 495.9625 116.221094 
L 495.9625 109.221094 
L 475.9625 109.221094 
z
" style="fill: #9467bd"/>
    </g>
    <g id="text_38">
     <!-- Waste Gas -->
     <g transform="translate(503.9625 116.221094) scale(0.1 -0.1)">
      <defs>
       <path id="DejaVuSans-47" d="M 3809 666 
L 3809 1919 
L 2778 1919 
L 2778 2438 
L 4434 2438 
L 4434 434 
Q 4069 175 3628 42 
Q 3188 -91 2688 -91 
Q 1594 -91 976 548 
Q 359 1188 359 2328 
Q 359 3472 976 4111 
Q 1594 4750 2688 4750 
Q 3144 4750 3555 4637 
Q 3966 4525 4313 4306 
L 4313 3634 
Q 3963 3931 3569 4081 
Q 3175 4231 2741 4231 
Q 1884 4231 1454 3753 
Q 1025 3275 1025 2328 
Q 1025 1384 1454 906 
Q 1884 428 2741 428 
Q 3075 428 3337 486 
Q 3600 544 3809 666 
z
" transform="scale(0.015625)"/>
      </defs>
      <use xlink:href="#DejaVuSans-57"/>
      <use xlink:href="#DejaVuSans-61" transform="translate(92.501953 0)"/>
      <use xlink:href="#DejaVuSans-73" transform="translate(153.78125 0)"/>
      <use xlink:href="#DejaVuSans-74" transform="translate(205.880859 0)"/>
      <use xlink:href="#DejaVuSans-65" transform="translate(245.089844 0)"/>
      <use xlink:href="#DejaVuSans-20" transform="translate(306.613281 0)"/>
      <use xlink:href="#DejaVuSans-47" transform="translate(338.400391 0)"/>
      <use xlink:href="#DejaVuSans-61" transform="translate(415.890625 0)"/>
      <use xlink:href="#DejaVuSans-73" transform="translate(477.169922 0)"/>
     </g>
    </g>
    <g id="patch_160">
     <path d="M 475.9625 135.899219 
L 495.9625 135.899219 
L 495.9625 128.899219 
L 475.9625 128.899219 
z
" style="fill: #d62728"/>
    </g>
    <g id="text_39">
     <!-- Solar -->
     <g transform="translate(503.9625 135.899219) scale(0.1 -0.1)">
      <defs>
       <path id="DejaVuSans-53" d="M 3425 4513 
L 3425 3897 
Q 3066 4069 2747 4153 
Q 2428 4238 2131 4238 
Q 1616 4238 1336 4038 
Q 1056 3838 1056 3469 
Q 1056 3159 1242 3001 
Q 1428 2844 1947 2747 
L 2328 2669 
Q 3034 2534 3370 2195 
Q 3706 1856 3706 1288 
Q 3706 609 3251 259 
Q 2797 -91 1919 -91 
Q 1588 -91 1214 -16 
Q 841 59 441 206 
L 441 856 
Q 825 641 1194 531 
Q 1563 422 1919 422 
Q 2459 422 2753 634 
Q 3047 847 3047 1241 
Q 3047 1584 2836 1778 
Q 2625 1972 2144 2069 
L 1759 2144 
Q 1053 2284 737 2584 
Q 422 2884 422 3419 
Q 422 4038 858 4394 
Q 1294 4750 2059 4750 
Q 2388 4750 2728 4690 
Q 3069 4631 3425 4513 
z
" transform="scale(0.015625)"/>
      </defs>
      <use xlink:href="#DejaVuSans-53"/>
      <use xlink:href="#DejaVuSans-6f" transform="translate(63.476562 0)"/>
      <use xlink:href="#DejaVuSans-6c" transform="translate(124.658203 0)"/>
      <use xlink:href="#DejaVuSans-61" transform="translate(152.441406 0)"/>
      <use xlink:href="#DejaVuSans-72" transform="translate(213.720703 0)"/>
     </g>
    </g>
    <g id="patch_161">
     <path d="M 475.9625 162.216094 
L 495.9625 162.216094 
L 495.9625 155.216094 
L 475.9625 155.216094 
z
" style="fill: #2ca02c"/>
    </g>
    <g id="text_40">
     <!-- Natural -->
     <g transform="translate(503.9625 155.577344) scale(0.1 -0.1)">
      <defs>
       <path id="DejaVuSans-4e" d="M 628 4666 
L 1478 4666 
L 3547 763 
L 3547 4666 
L 4159 4666 
L 4159 0 
L 3309 0 
L 1241 3903 
L 1241 0 
L 628 0 
L 628 4666 
z
" transform="scale(0.015625)"/>
      </defs>
      <use xlink:href="#DejaVuSans-4e"/>
      <use xlink:href="#DejaVuSans-61" transform="translate(74.804688 0)"/>
      <use xlink:href="#DejaVuSans-74" transform="translate(136.083984 0)"/>
      <use xlink:href="#DejaVuSans-75" transform="translate(175.292969 0)"/>
      <use xlink:href="#DejaVuSans-72" transform="translate(238.671875 0)"/>
      <use xlink:href="#DejaVuSans-61" transform="translate(279.785156 0)"/>
      <use xlink:href="#DejaVuSans-6c" transform="translate(341.064453 0)"/>
     </g>
     <!-- Gas/Propane -->
     <g transform="translate(503.9625 166.775156) scale(0.1 -0.1)">
      <defs>
       <path id="DejaVuSans-2f" d="M 1625 4666 
L 2156 4666 
L 531 -594 
L 0 -594 
L 1625 4666 
z
" transform="scale(0.015625)"/>
       <path id="DejaVuSans-50" d="M 1259 4147 
L 1259 2394 
L 2053 2394 
Q 2494 2394 2734 2622 
Q 2975 2850 2975 3272 
Q 2975 3691 2734 3919 
Q 2494 4147 2053 4147 
L 1259 4147 
z
M 628 4666 
L 2053 4666 
Q 2838 4666 3239 4311 
Q 3641 3956 3641 3272 
Q 3641 2581 3239 2228 
Q 2838 1875 2053 1875 
L 1259 1875 
L 1259 0 
L 628 0 
L 628 4666 
z
" transform="scale(0.015625)"/>
      </defs>
      <use xlink:href="#DejaVuSans-47"/>
      <use xlink:href="#DejaVuSans-61" transform="translate(77.490234 0)"/>
      <use xlink:href="#DejaVuSans-73" transform="translate(138.769531 0)"/>
      <use xlink:href="#DejaVuSans-2f" transform="translate(190.869141 0)"/>
      <use xlink:href="#DejaVuSans-50" transform="translate(224.560547 0)"/>
      <use xlink:href="#DejaVuSans-72" transform="translate(283.113281 0)"/>
      <use xlink:href="#DejaVuSans-6f" transform="translate(321.976562 0)"/>
      <use xlink:href="#DejaVuSans-70" transform="translate(383.158203 0)"/>
      <use xlink:href="#DejaVuSans-61" transform="translate(446.634766 0)"/>
      <use xlink:href="#DejaVuSans-6e" transform="translate(507.914062 0)"/>
      <use xlink:href="#DejaVuSans-65" transform="translate(571.292969 0)"/>
     </g>
    </g>
    <g id="patch_162">
     <path d="M 475.9625 186.453281 
L 495.9625 186.453281 
L 495.9625 179.453281 
L 475.9625 179.453281 
z
" style="fill: #ff7f0e"/>
    </g>
    <g id="text_41">
     <!-- Energy Storage -->
     <g transform="translate(503.9625 186.453281) scale(0.1 -0.1)">
      <use xlink:href="#DejaVuSans-45"/>
      <use xlink:href="#DejaVuSans-6e" transform="translate(63.183594 0)"/>
      <use xlink:href="#DejaVuSans-65" transform="translate(126.5625 0)"/>
      <use xlink:href="#DejaVuSans-72" transform="translate(188.085938 0)"/>
      <use xlink:href="#DejaVuSans-67" transform="translate(227.449219 0)"/>
      <use xlink:href="#DejaVuSans-79" transform="translate(290.925781 0)"/>
      <use xlink:href="#DejaVuSans-20" transform="translate(350.105469 0)"/>
      <use xlink:href="#DejaVuSans-53" transform="translate(381.892578 0)"/>
      <use xlink:href="#DejaVuSans-74" transform="translate(445.369141 0)"/>
      <use xlink:href="#DejaVuSans-6f" transform="translate(484.578125 0)"/>
      <use xlink:href="#DejaVuSans-72" transform="translate(545.759766 0)"/>
      <use xlink:href="#DejaVuSans-61" transform="translate(586.873047 0)"/>
      <use xlink:href="#DejaVuSans-67" transform="translate(648.152344 0)"/>
      <use xlink:href="#DejaVuSans-65" transform="translate(711.628906 0)"/>
     </g>
    </g>
    <g id="patch_163">
     <path d="M 475.9625 206.131406 
L 495.9625 206.131406 
L 495.9625 199.131406 
L 475.9625 199.131406 
z
" style="fill: #1f77b4"/>
    </g>
    <g id="text_42">
     <!-- Biofuel -->
     <g transform="translate(503.9625 206.131406) scale(0.1 -0.1)">
      <defs>
       <path id="DejaVuSans-42" d="M 1259 2228 
L 1259 519 
L 2272 519 
Q 2781 519 3026 730 
Q 3272 941 3272 1375 
Q 3272 1813 3026 2020 
Q 2781 2228 2272 2228 
L 1259 2228 
z
M 1259 4147 
L 1259 2741 
L 2194 2741 
Q 2656 2741 2882 2914 
Q 3109 3088 3109 3444 
Q 3109 3797 2882 3972 
Q 2656 4147 2194 4147 
L 1259 4147 
z
M 628 4666 
L 2241 4666 
Q 2963 4666 3353 4366 
Q 3744 4066 3744 3513 
Q 3744 3084 3544 2831 
Q 3344 2578 2956 2516 
Q 3422 2416 3680 2098 
Q 3938 1781 3938 1306 
Q 3938 681 3513 340 
Q 3088 0 2303 0 
L 628 0 
L 628 4666 
z
" transform="scale(0.015625)"/>
       <path id="DejaVuSans-66" d="M 2375 4863 
L 2375 4384 
L 1825 4384 
Q 1516 4384 1395 4259 
Q 1275 4134 1275 3809 
L 1275 3500 
L 2222 3500 
L 2222 3053 
L 1275 3053 
L 1275 0 
L 697 0 
L 697 3053 
L 147 3053 
L 147 3500 
L 697 3500 
L 697 3744 
Q 697 4328 969 4595 
Q 1241 4863 1831 4863 
L 2375 4863 
z
" transform="scale(0.015625)"/>
      </defs>
      <use xlink:href="#DejaVuSans-42"/>
      <use xlink:href="#DejaVuSans-69" transform="translate(68.603516 0)"/>
      <use xlink:href="#DejaVuSans-6f" transform="translate(96.386719 0)"/>
      <use xlink:href="#DejaVuSans-66" transform="translate(157.568359 0)"/>
      <use xlink:href="#DejaVuSans-75" transform="translate(192.773438 0)"/>
      <use xlink:href="#DejaVuSans-65" transform="translate(256.152344 0)"/>
      <use xlink:href="#DejaVuSans-6c" transform="translate(317.675781 0)"/>
     </g>
    </g>
   </g>
  </g>
 </g>
 <defs>
  <clipPath id="p6d4b450000">
   <rect x="20.5625" y="23.837812" width="446.4" height="249.48"/>
  </clipPath>
 </defs>
</svg>
